M48
; DRILL file {KiCad 9.0.6} date 2025-12-22T18:59:40-0600
; FORMAT={-:-/ absolute / metric / decimal}
; #@! TF.CreationDate,2025-12-22T18:59:40-06:00
; #@! TF.GenerationSoftware,Kicad,Pcbnew,9.0.6
; #@! TF.FileFunction,Plated,1,2,PTH
FMAT,2
METRIC
; #@! TA.AperFunction,Plated,PTH,ViaDrill
T1C0.300
; #@! TA.AperFunction,Plated,PTH,ComponentDrill
T2C0.900
; #@! TA.AperFunction,Plated,PTH,ComponentDrill
T3C1.000
%
G90
G05
T1
X101.6Y-45.72
X101.6Y-55.88
X101.6Y-60.96
X101.6Y-66.04
X101.6Y-71.12
X101.6Y-76.2
X101.6Y-81.28
X101.6Y-86.36
X101.6Y-91.44
X101.6Y-96.52
X106.68Y-45.72
X106.68Y-55.88
X106.68Y-60.96
X106.68Y-66.04
X106.68Y-71.12
X106.68Y-76.2
X106.68Y-81.28
X106.68Y-86.36
X106.68Y-91.44
X106.68Y-96.52
X111.76Y-45.72
X111.76Y-55.88
X111.76Y-60.96
X111.76Y-66.04
X111.76Y-71.12
X111.76Y-76.2
X111.76Y-81.28
X111.76Y-86.36
X111.76Y-91.44
X111.76Y-96.52
X116.84Y-45.72
X116.84Y-55.88
X116.84Y-60.96
X116.84Y-66.04
X116.84Y-71.12
X116.84Y-76.2
X116.84Y-81.28
X116.84Y-86.36
X116.84Y-91.44
X116.84Y-96.52
X121.92Y-45.72
X121.92Y-55.88
X121.92Y-60.96
X121.92Y-66.04
X121.92Y-71.12
X121.92Y-76.2
X121.92Y-81.28
X121.92Y-86.36
X121.92Y-91.44
X121.92Y-96.52
X127.0Y-45.72
X127.0Y-55.88
X127.0Y-60.96
X127.0Y-66.04
X127.0Y-71.12
X127.0Y-76.2
X127.0Y-81.28
X127.0Y-86.36
X127.0Y-91.44
X127.0Y-96.52
X132.08Y-45.72
X132.08Y-50.8
X132.08Y-55.88
X132.08Y-60.96
X132.08Y-66.04
X132.08Y-71.12
X132.08Y-76.2
X132.08Y-81.28
X132.08Y-86.36
X132.08Y-91.44
X132.08Y-96.52
X137.16Y-45.72
X137.16Y-50.8
X137.16Y-55.88
X137.16Y-60.96
X137.16Y-66.04
X137.16Y-71.12
X137.16Y-76.2
X137.16Y-81.28
X137.16Y-86.36
X137.16Y-91.44
X137.16Y-96.52
X142.24Y-45.72
X142.24Y-50.8
X142.24Y-55.88
X142.24Y-60.96
X142.24Y-66.04
X142.24Y-71.12
X142.24Y-76.2
X142.24Y-81.28
X142.24Y-86.36
X142.24Y-91.44
X142.24Y-96.52
X147.32Y-45.72
X147.32Y-50.8
X147.32Y-55.88
X147.32Y-60.96
X147.32Y-86.36
X147.32Y-91.44
T2
X116.84Y-48.26
X116.84Y-50.8
X119.38Y-48.26
X119.38Y-50.8
X121.92Y-48.26
X121.92Y-50.8
X124.46Y-48.26
X124.46Y-50.8
X127.0Y-48.26
X127.0Y-50.8
T3
X99.06Y-48.26
X99.06Y-50.8
X99.06Y-53.34
X99.06Y-55.88
X99.06Y-58.42
X99.06Y-60.96
X99.06Y-63.5
X99.06Y-66.04
X147.32Y-66.04
X147.32Y-68.58
X147.32Y-71.12
X147.32Y-73.66
X147.32Y-76.2
X147.32Y-78.74
X147.32Y-81.28
X147.32Y-83.82
M30
