G04 #@! TF.GenerationSoftware,KiCad,Pcbnew,9.0.6*
G04 #@! TF.CreationDate,2025-12-22T19:01:14-06:00*
G04 #@! TF.ProjectId,PCB TM171,50434220-544d-4313-9731-2e6b69636164,rev?*
G04 #@! TF.SameCoordinates,Original*
G04 #@! TF.FileFunction,Legend,Bot*
G04 #@! TF.FilePolarity,Positive*
%FSLAX46Y46*%
G04 Gerber Fmt 4.6, Leading zero omitted, Abs format (unit mm)*
G04 Created by KiCad (PCBNEW 9.0.6) date 2025-12-22 19:01:14*
%MOMM*%
%LPD*%
G01*
G04 APERTURE LIST*
G04 Aperture macros list*
%AMFreePoly0*
4,1,33,0.232228,0.765552,0.377117,0.705537,0.507515,0.618408,0.618408,0.507515,0.705537,0.377117,0.765552,0.232228,0.796148,0.078414,0.796148,-0.078414,0.765552,-0.232228,0.705537,-0.377117,0.618408,-0.507515,0.507515,-0.618408,0.377117,-0.705537,0.232228,-0.765552,0.078414,-0.796148,-0.078414,-0.796148,-0.232228,-0.765552,-0.377117,-0.705537,-0.507515,-0.618408,-0.618408,-0.507515,
-0.705537,-0.377117,-0.765552,-0.232228,-0.796148,-0.078414,-0.796148,0.078414,-0.765552,0.232228,-0.705537,0.377117,-0.618408,0.507515,-0.507515,0.618408,-0.377117,0.705537,-0.232228,0.765552,-0.078414,0.796148,0.078414,0.796148,0.232228,0.765552,0.232228,0.765552,$1*%
G04 Aperture macros list end*
%ADD10C,0.240000*%
%ADD11C,0.150000*%
%ADD12C,0.120000*%
%ADD13C,1.600000*%
%ADD14FreePoly0,0.000000*%
%ADD15R,1.700000X1.700000*%
%ADD16C,1.700000*%
G04 APERTURE END LIST*
D10*
X143999820Y-90788796D02*
X143314106Y-90788796D01*
X143656963Y-91988796D02*
X143656963Y-90788796D01*
X142914105Y-91988796D02*
X142914105Y-90788796D01*
X142914105Y-90788796D02*
X142514105Y-91645939D01*
X142514105Y-91645939D02*
X142114105Y-90788796D01*
X142114105Y-90788796D02*
X142114105Y-91988796D01*
X140914105Y-91988796D02*
X141599819Y-91988796D01*
X141256962Y-91988796D02*
X141256962Y-90788796D01*
X141256962Y-90788796D02*
X141371248Y-90960225D01*
X141371248Y-90960225D02*
X141485533Y-91074511D01*
X141485533Y-91074511D02*
X141599819Y-91131654D01*
X140514105Y-90788796D02*
X139714105Y-90788796D01*
X139714105Y-90788796D02*
X140228391Y-91988796D01*
X138628391Y-91988796D02*
X139314105Y-91988796D01*
X138971248Y-91988796D02*
X138971248Y-90788796D01*
X138971248Y-90788796D02*
X139085534Y-90960225D01*
X139085534Y-90960225D02*
X139199819Y-91074511D01*
X139199819Y-91074511D02*
X139314105Y-91131654D01*
X136685534Y-91988796D02*
X136685534Y-91360225D01*
X136685534Y-91360225D02*
X136742676Y-91245939D01*
X136742676Y-91245939D02*
X136856962Y-91188796D01*
X136856962Y-91188796D02*
X137085534Y-91188796D01*
X137085534Y-91188796D02*
X137199819Y-91245939D01*
X136685534Y-91931654D02*
X136799819Y-91988796D01*
X136799819Y-91988796D02*
X137085534Y-91988796D01*
X137085534Y-91988796D02*
X137199819Y-91931654D01*
X137199819Y-91931654D02*
X137256962Y-91817368D01*
X137256962Y-91817368D02*
X137256962Y-91703082D01*
X137256962Y-91703082D02*
X137199819Y-91588796D01*
X137199819Y-91588796D02*
X137085534Y-91531654D01*
X137085534Y-91531654D02*
X136799819Y-91531654D01*
X136799819Y-91531654D02*
X136685534Y-91474511D01*
X135599820Y-91988796D02*
X135599820Y-90788796D01*
X135599820Y-91931654D02*
X135714105Y-91988796D01*
X135714105Y-91988796D02*
X135942677Y-91988796D01*
X135942677Y-91988796D02*
X136056962Y-91931654D01*
X136056962Y-91931654D02*
X136114105Y-91874511D01*
X136114105Y-91874511D02*
X136171248Y-91760225D01*
X136171248Y-91760225D02*
X136171248Y-91417368D01*
X136171248Y-91417368D02*
X136114105Y-91303082D01*
X136114105Y-91303082D02*
X136056962Y-91245939D01*
X136056962Y-91245939D02*
X135942677Y-91188796D01*
X135942677Y-91188796D02*
X135714105Y-91188796D01*
X135714105Y-91188796D02*
X135599820Y-91245939D01*
X134514106Y-91988796D02*
X134514106Y-91360225D01*
X134514106Y-91360225D02*
X134571248Y-91245939D01*
X134571248Y-91245939D02*
X134685534Y-91188796D01*
X134685534Y-91188796D02*
X134914106Y-91188796D01*
X134914106Y-91188796D02*
X135028391Y-91245939D01*
X134514106Y-91931654D02*
X134628391Y-91988796D01*
X134628391Y-91988796D02*
X134914106Y-91988796D01*
X134914106Y-91988796D02*
X135028391Y-91931654D01*
X135028391Y-91931654D02*
X135085534Y-91817368D01*
X135085534Y-91817368D02*
X135085534Y-91703082D01*
X135085534Y-91703082D02*
X135028391Y-91588796D01*
X135028391Y-91588796D02*
X134914106Y-91531654D01*
X134914106Y-91531654D02*
X134628391Y-91531654D01*
X134628391Y-91531654D02*
X134514106Y-91474511D01*
X133942677Y-91188796D02*
X133942677Y-92388796D01*
X133942677Y-91245939D02*
X133828392Y-91188796D01*
X133828392Y-91188796D02*
X133599820Y-91188796D01*
X133599820Y-91188796D02*
X133485534Y-91245939D01*
X133485534Y-91245939D02*
X133428392Y-91303082D01*
X133428392Y-91303082D02*
X133371249Y-91417368D01*
X133371249Y-91417368D02*
X133371249Y-91760225D01*
X133371249Y-91760225D02*
X133428392Y-91874511D01*
X133428392Y-91874511D02*
X133485534Y-91931654D01*
X133485534Y-91931654D02*
X133599820Y-91988796D01*
X133599820Y-91988796D02*
X133828392Y-91988796D01*
X133828392Y-91988796D02*
X133942677Y-91931654D01*
X133028392Y-91188796D02*
X132571249Y-91188796D01*
X132856963Y-90788796D02*
X132856963Y-91817368D01*
X132856963Y-91817368D02*
X132799820Y-91931654D01*
X132799820Y-91931654D02*
X132685535Y-91988796D01*
X132685535Y-91988796D02*
X132571249Y-91988796D01*
X131714106Y-91931654D02*
X131828392Y-91988796D01*
X131828392Y-91988796D02*
X132056964Y-91988796D01*
X132056964Y-91988796D02*
X132171249Y-91931654D01*
X132171249Y-91931654D02*
X132228392Y-91817368D01*
X132228392Y-91817368D02*
X132228392Y-91360225D01*
X132228392Y-91360225D02*
X132171249Y-91245939D01*
X132171249Y-91245939D02*
X132056964Y-91188796D01*
X132056964Y-91188796D02*
X131828392Y-91188796D01*
X131828392Y-91188796D02*
X131714106Y-91245939D01*
X131714106Y-91245939D02*
X131656964Y-91360225D01*
X131656964Y-91360225D02*
X131656964Y-91474511D01*
X131656964Y-91474511D02*
X132228392Y-91588796D01*
X131142678Y-91988796D02*
X131142678Y-91188796D01*
X131142678Y-91417368D02*
X131085535Y-91303082D01*
X131085535Y-91303082D02*
X131028393Y-91245939D01*
X131028393Y-91245939D02*
X130914107Y-91188796D01*
X130914107Y-91188796D02*
X130799821Y-91188796D01*
X129485535Y-91988796D02*
X129485535Y-90788796D01*
X129485535Y-90788796D02*
X129028392Y-90788796D01*
X129028392Y-90788796D02*
X128914107Y-90845939D01*
X128914107Y-90845939D02*
X128856964Y-90903082D01*
X128856964Y-90903082D02*
X128799821Y-91017368D01*
X128799821Y-91017368D02*
X128799821Y-91188796D01*
X128799821Y-91188796D02*
X128856964Y-91303082D01*
X128856964Y-91303082D02*
X128914107Y-91360225D01*
X128914107Y-91360225D02*
X129028392Y-91417368D01*
X129028392Y-91417368D02*
X129485535Y-91417368D01*
X127599821Y-91874511D02*
X127656964Y-91931654D01*
X127656964Y-91931654D02*
X127828392Y-91988796D01*
X127828392Y-91988796D02*
X127942678Y-91988796D01*
X127942678Y-91988796D02*
X128114107Y-91931654D01*
X128114107Y-91931654D02*
X128228392Y-91817368D01*
X128228392Y-91817368D02*
X128285535Y-91703082D01*
X128285535Y-91703082D02*
X128342678Y-91474511D01*
X128342678Y-91474511D02*
X128342678Y-91303082D01*
X128342678Y-91303082D02*
X128285535Y-91074511D01*
X128285535Y-91074511D02*
X128228392Y-90960225D01*
X128228392Y-90960225D02*
X128114107Y-90845939D01*
X128114107Y-90845939D02*
X127942678Y-90788796D01*
X127942678Y-90788796D02*
X127828392Y-90788796D01*
X127828392Y-90788796D02*
X127656964Y-90845939D01*
X127656964Y-90845939D02*
X127599821Y-90903082D01*
X126685535Y-91360225D02*
X126514107Y-91417368D01*
X126514107Y-91417368D02*
X126456964Y-91474511D01*
X126456964Y-91474511D02*
X126399821Y-91588796D01*
X126399821Y-91588796D02*
X126399821Y-91760225D01*
X126399821Y-91760225D02*
X126456964Y-91874511D01*
X126456964Y-91874511D02*
X126514107Y-91931654D01*
X126514107Y-91931654D02*
X126628392Y-91988796D01*
X126628392Y-91988796D02*
X127085535Y-91988796D01*
X127085535Y-91988796D02*
X127085535Y-90788796D01*
X127085535Y-90788796D02*
X126685535Y-90788796D01*
X126685535Y-90788796D02*
X126571250Y-90845939D01*
X126571250Y-90845939D02*
X126514107Y-90903082D01*
X126514107Y-90903082D02*
X126456964Y-91017368D01*
X126456964Y-91017368D02*
X126456964Y-91131654D01*
X126456964Y-91131654D02*
X126514107Y-91245939D01*
X126514107Y-91245939D02*
X126571250Y-91303082D01*
X126571250Y-91303082D02*
X126685535Y-91360225D01*
X126685535Y-91360225D02*
X127085535Y-91360225D01*
X125085535Y-91188796D02*
X124799821Y-91988796D01*
X124799821Y-91988796D02*
X124514106Y-91188796D01*
X123428392Y-91988796D02*
X124114106Y-91988796D01*
X123771249Y-91988796D02*
X123771249Y-90788796D01*
X123771249Y-90788796D02*
X123885535Y-90960225D01*
X123885535Y-90960225D02*
X123999820Y-91074511D01*
X123999820Y-91074511D02*
X124114106Y-91131654D01*
X143999820Y-93120729D02*
X143542677Y-93120729D01*
X143828391Y-93920729D02*
X143828391Y-92892158D01*
X143828391Y-92892158D02*
X143771248Y-92777872D01*
X143771248Y-92777872D02*
X143656963Y-92720729D01*
X143656963Y-92720729D02*
X143542677Y-92720729D01*
X142971249Y-93920729D02*
X143085534Y-93863587D01*
X143085534Y-93863587D02*
X143142677Y-93806444D01*
X143142677Y-93806444D02*
X143199820Y-93692158D01*
X143199820Y-93692158D02*
X143199820Y-93349301D01*
X143199820Y-93349301D02*
X143142677Y-93235015D01*
X143142677Y-93235015D02*
X143085534Y-93177872D01*
X143085534Y-93177872D02*
X142971249Y-93120729D01*
X142971249Y-93120729D02*
X142799820Y-93120729D01*
X142799820Y-93120729D02*
X142685534Y-93177872D01*
X142685534Y-93177872D02*
X142628392Y-93235015D01*
X142628392Y-93235015D02*
X142571249Y-93349301D01*
X142571249Y-93349301D02*
X142571249Y-93692158D01*
X142571249Y-93692158D02*
X142628392Y-93806444D01*
X142628392Y-93806444D02*
X142685534Y-93863587D01*
X142685534Y-93863587D02*
X142799820Y-93920729D01*
X142799820Y-93920729D02*
X142971249Y-93920729D01*
X142056963Y-93920729D02*
X142056963Y-93120729D01*
X142056963Y-93349301D02*
X141999820Y-93235015D01*
X141999820Y-93235015D02*
X141942678Y-93177872D01*
X141942678Y-93177872D02*
X141828392Y-93120729D01*
X141828392Y-93120729D02*
X141714106Y-93120729D01*
X140456963Y-93863587D02*
X140285535Y-93920729D01*
X140285535Y-93920729D02*
X139999820Y-93920729D01*
X139999820Y-93920729D02*
X139885535Y-93863587D01*
X139885535Y-93863587D02*
X139828392Y-93806444D01*
X139828392Y-93806444D02*
X139771249Y-93692158D01*
X139771249Y-93692158D02*
X139771249Y-93577872D01*
X139771249Y-93577872D02*
X139828392Y-93463587D01*
X139828392Y-93463587D02*
X139885535Y-93406444D01*
X139885535Y-93406444D02*
X139999820Y-93349301D01*
X139999820Y-93349301D02*
X140228392Y-93292158D01*
X140228392Y-93292158D02*
X140342677Y-93235015D01*
X140342677Y-93235015D02*
X140399820Y-93177872D01*
X140399820Y-93177872D02*
X140456963Y-93063587D01*
X140456963Y-93063587D02*
X140456963Y-92949301D01*
X140456963Y-92949301D02*
X140399820Y-92835015D01*
X140399820Y-92835015D02*
X140342677Y-92777872D01*
X140342677Y-92777872D02*
X140228392Y-92720729D01*
X140228392Y-92720729D02*
X139942677Y-92720729D01*
X139942677Y-92720729D02*
X139771249Y-92777872D01*
X139428392Y-92720729D02*
X138742678Y-92720729D01*
X139085535Y-93920729D02*
X139085535Y-92720729D01*
X138342677Y-93920729D02*
X138342677Y-92720729D01*
X138342677Y-92720729D02*
X138056963Y-92720729D01*
X138056963Y-92720729D02*
X137885534Y-92777872D01*
X137885534Y-92777872D02*
X137771249Y-92892158D01*
X137771249Y-92892158D02*
X137714106Y-93006444D01*
X137714106Y-93006444D02*
X137656963Y-93235015D01*
X137656963Y-93235015D02*
X137656963Y-93406444D01*
X137656963Y-93406444D02*
X137714106Y-93635015D01*
X137714106Y-93635015D02*
X137771249Y-93749301D01*
X137771249Y-93749301D02*
X137885534Y-93863587D01*
X137885534Y-93863587D02*
X138056963Y-93920729D01*
X138056963Y-93920729D02*
X138342677Y-93920729D01*
X136228391Y-93920729D02*
X136228391Y-92720729D01*
X136228391Y-92720729D02*
X135771248Y-92720729D01*
X135771248Y-92720729D02*
X135656963Y-92777872D01*
X135656963Y-92777872D02*
X135599820Y-92835015D01*
X135599820Y-92835015D02*
X135542677Y-92949301D01*
X135542677Y-92949301D02*
X135542677Y-93120729D01*
X135542677Y-93120729D02*
X135599820Y-93235015D01*
X135599820Y-93235015D02*
X135656963Y-93292158D01*
X135656963Y-93292158D02*
X135771248Y-93349301D01*
X135771248Y-93349301D02*
X136228391Y-93349301D01*
X134342677Y-93806444D02*
X134399820Y-93863587D01*
X134399820Y-93863587D02*
X134571248Y-93920729D01*
X134571248Y-93920729D02*
X134685534Y-93920729D01*
X134685534Y-93920729D02*
X134856963Y-93863587D01*
X134856963Y-93863587D02*
X134971248Y-93749301D01*
X134971248Y-93749301D02*
X135028391Y-93635015D01*
X135028391Y-93635015D02*
X135085534Y-93406444D01*
X135085534Y-93406444D02*
X135085534Y-93235015D01*
X135085534Y-93235015D02*
X135028391Y-93006444D01*
X135028391Y-93006444D02*
X134971248Y-92892158D01*
X134971248Y-92892158D02*
X134856963Y-92777872D01*
X134856963Y-92777872D02*
X134685534Y-92720729D01*
X134685534Y-92720729D02*
X134571248Y-92720729D01*
X134571248Y-92720729D02*
X134399820Y-92777872D01*
X134399820Y-92777872D02*
X134342677Y-92835015D01*
X133428391Y-93292158D02*
X133256963Y-93349301D01*
X133256963Y-93349301D02*
X133199820Y-93406444D01*
X133199820Y-93406444D02*
X133142677Y-93520729D01*
X133142677Y-93520729D02*
X133142677Y-93692158D01*
X133142677Y-93692158D02*
X133199820Y-93806444D01*
X133199820Y-93806444D02*
X133256963Y-93863587D01*
X133256963Y-93863587D02*
X133371248Y-93920729D01*
X133371248Y-93920729D02*
X133828391Y-93920729D01*
X133828391Y-93920729D02*
X133828391Y-92720729D01*
X133828391Y-92720729D02*
X133428391Y-92720729D01*
X133428391Y-92720729D02*
X133314106Y-92777872D01*
X133314106Y-92777872D02*
X133256963Y-92835015D01*
X133256963Y-92835015D02*
X133199820Y-92949301D01*
X133199820Y-92949301D02*
X133199820Y-93063587D01*
X133199820Y-93063587D02*
X133256963Y-93177872D01*
X133256963Y-93177872D02*
X133314106Y-93235015D01*
X133314106Y-93235015D02*
X133428391Y-93292158D01*
X133428391Y-93292158D02*
X133828391Y-93292158D01*
X131828391Y-93120729D02*
X131542677Y-93920729D01*
X131542677Y-93920729D02*
X131256962Y-93120729D01*
X130285534Y-93120729D02*
X130285534Y-93920729D01*
X130571248Y-92663587D02*
X130856962Y-93520729D01*
X130856962Y-93520729D02*
X130114105Y-93520729D01*
X129656962Y-93806444D02*
X129599819Y-93863587D01*
X129599819Y-93863587D02*
X129656962Y-93920729D01*
X129656962Y-93920729D02*
X129714105Y-93863587D01*
X129714105Y-93863587D02*
X129656962Y-93806444D01*
X129656962Y-93806444D02*
X129656962Y-93920729D01*
X129142676Y-92835015D02*
X129085533Y-92777872D01*
X129085533Y-92777872D02*
X128971248Y-92720729D01*
X128971248Y-92720729D02*
X128685533Y-92720729D01*
X128685533Y-92720729D02*
X128571248Y-92777872D01*
X128571248Y-92777872D02*
X128514105Y-92835015D01*
X128514105Y-92835015D02*
X128456962Y-92949301D01*
X128456962Y-92949301D02*
X128456962Y-93063587D01*
X128456962Y-93063587D02*
X128514105Y-93235015D01*
X128514105Y-93235015D02*
X129199819Y-93920729D01*
X129199819Y-93920729D02*
X128456962Y-93920729D01*
X143142677Y-95852662D02*
X143542677Y-95281234D01*
X143828391Y-95852662D02*
X143828391Y-94652662D01*
X143828391Y-94652662D02*
X143371248Y-94652662D01*
X143371248Y-94652662D02*
X143256963Y-94709805D01*
X143256963Y-94709805D02*
X143199820Y-94766948D01*
X143199820Y-94766948D02*
X143142677Y-94881234D01*
X143142677Y-94881234D02*
X143142677Y-95052662D01*
X143142677Y-95052662D02*
X143199820Y-95166948D01*
X143199820Y-95166948D02*
X143256963Y-95224091D01*
X143256963Y-95224091D02*
X143371248Y-95281234D01*
X143371248Y-95281234D02*
X143828391Y-95281234D01*
X142456963Y-95852662D02*
X142571248Y-95795520D01*
X142571248Y-95795520D02*
X142628391Y-95738377D01*
X142628391Y-95738377D02*
X142685534Y-95624091D01*
X142685534Y-95624091D02*
X142685534Y-95281234D01*
X142685534Y-95281234D02*
X142628391Y-95166948D01*
X142628391Y-95166948D02*
X142571248Y-95109805D01*
X142571248Y-95109805D02*
X142456963Y-95052662D01*
X142456963Y-95052662D02*
X142285534Y-95052662D01*
X142285534Y-95052662D02*
X142171248Y-95109805D01*
X142171248Y-95109805D02*
X142114106Y-95166948D01*
X142114106Y-95166948D02*
X142056963Y-95281234D01*
X142056963Y-95281234D02*
X142056963Y-95624091D01*
X142056963Y-95624091D02*
X142114106Y-95738377D01*
X142114106Y-95738377D02*
X142171248Y-95795520D01*
X142171248Y-95795520D02*
X142285534Y-95852662D01*
X142285534Y-95852662D02*
X142456963Y-95852662D01*
X141542677Y-95852662D02*
X141542677Y-94652662D01*
X141542677Y-95109805D02*
X141428392Y-95052662D01*
X141428392Y-95052662D02*
X141199820Y-95052662D01*
X141199820Y-95052662D02*
X141085534Y-95109805D01*
X141085534Y-95109805D02*
X141028392Y-95166948D01*
X141028392Y-95166948D02*
X140971249Y-95281234D01*
X140971249Y-95281234D02*
X140971249Y-95624091D01*
X140971249Y-95624091D02*
X141028392Y-95738377D01*
X141028392Y-95738377D02*
X141085534Y-95795520D01*
X141085534Y-95795520D02*
X141199820Y-95852662D01*
X141199820Y-95852662D02*
X141428392Y-95852662D01*
X141428392Y-95852662D02*
X141542677Y-95795520D01*
X139999820Y-95795520D02*
X140114106Y-95852662D01*
X140114106Y-95852662D02*
X140342678Y-95852662D01*
X140342678Y-95852662D02*
X140456963Y-95795520D01*
X140456963Y-95795520D02*
X140514106Y-95681234D01*
X140514106Y-95681234D02*
X140514106Y-95224091D01*
X140514106Y-95224091D02*
X140456963Y-95109805D01*
X140456963Y-95109805D02*
X140342678Y-95052662D01*
X140342678Y-95052662D02*
X140114106Y-95052662D01*
X140114106Y-95052662D02*
X139999820Y-95109805D01*
X139999820Y-95109805D02*
X139942678Y-95224091D01*
X139942678Y-95224091D02*
X139942678Y-95338377D01*
X139942678Y-95338377D02*
X140514106Y-95452662D01*
X139428392Y-95852662D02*
X139428392Y-95052662D01*
X139428392Y-95281234D02*
X139371249Y-95166948D01*
X139371249Y-95166948D02*
X139314107Y-95109805D01*
X139314107Y-95109805D02*
X139199821Y-95052662D01*
X139199821Y-95052662D02*
X139085535Y-95052662D01*
X138856964Y-95052662D02*
X138399821Y-95052662D01*
X138685535Y-94652662D02*
X138685535Y-95681234D01*
X138685535Y-95681234D02*
X138628392Y-95795520D01*
X138628392Y-95795520D02*
X138514107Y-95852662D01*
X138514107Y-95852662D02*
X138399821Y-95852662D01*
X137828393Y-95852662D02*
X137942678Y-95795520D01*
X137942678Y-95795520D02*
X137999821Y-95738377D01*
X137999821Y-95738377D02*
X138056964Y-95624091D01*
X138056964Y-95624091D02*
X138056964Y-95281234D01*
X138056964Y-95281234D02*
X137999821Y-95166948D01*
X137999821Y-95166948D02*
X137942678Y-95109805D01*
X137942678Y-95109805D02*
X137828393Y-95052662D01*
X137828393Y-95052662D02*
X137656964Y-95052662D01*
X137656964Y-95052662D02*
X137542678Y-95109805D01*
X137542678Y-95109805D02*
X137485536Y-95166948D01*
X137485536Y-95166948D02*
X137428393Y-95281234D01*
X137428393Y-95281234D02*
X137428393Y-95624091D01*
X137428393Y-95624091D02*
X137485536Y-95738377D01*
X137485536Y-95738377D02*
X137542678Y-95795520D01*
X137542678Y-95795520D02*
X137656964Y-95852662D01*
X137656964Y-95852662D02*
X137828393Y-95852662D01*
X135599821Y-95224091D02*
X135428393Y-95281234D01*
X135428393Y-95281234D02*
X135371250Y-95338377D01*
X135371250Y-95338377D02*
X135314107Y-95452662D01*
X135314107Y-95452662D02*
X135314107Y-95624091D01*
X135314107Y-95624091D02*
X135371250Y-95738377D01*
X135371250Y-95738377D02*
X135428393Y-95795520D01*
X135428393Y-95795520D02*
X135542678Y-95852662D01*
X135542678Y-95852662D02*
X135999821Y-95852662D01*
X135999821Y-95852662D02*
X135999821Y-94652662D01*
X135999821Y-94652662D02*
X135599821Y-94652662D01*
X135599821Y-94652662D02*
X135485536Y-94709805D01*
X135485536Y-94709805D02*
X135428393Y-94766948D01*
X135428393Y-94766948D02*
X135371250Y-94881234D01*
X135371250Y-94881234D02*
X135371250Y-94995520D01*
X135371250Y-94995520D02*
X135428393Y-95109805D01*
X135428393Y-95109805D02*
X135485536Y-95166948D01*
X135485536Y-95166948D02*
X135599821Y-95224091D01*
X135599821Y-95224091D02*
X135999821Y-95224091D01*
X134799821Y-95852662D02*
X134799821Y-95052662D01*
X134799821Y-95281234D02*
X134742678Y-95166948D01*
X134742678Y-95166948D02*
X134685536Y-95109805D01*
X134685536Y-95109805D02*
X134571250Y-95052662D01*
X134571250Y-95052662D02*
X134456964Y-95052662D01*
X133599821Y-95795520D02*
X133714107Y-95852662D01*
X133714107Y-95852662D02*
X133942679Y-95852662D01*
X133942679Y-95852662D02*
X134056964Y-95795520D01*
X134056964Y-95795520D02*
X134114107Y-95681234D01*
X134114107Y-95681234D02*
X134114107Y-95224091D01*
X134114107Y-95224091D02*
X134056964Y-95109805D01*
X134056964Y-95109805D02*
X133942679Y-95052662D01*
X133942679Y-95052662D02*
X133714107Y-95052662D01*
X133714107Y-95052662D02*
X133599821Y-95109805D01*
X133599821Y-95109805D02*
X133542679Y-95224091D01*
X133542679Y-95224091D02*
X133542679Y-95338377D01*
X133542679Y-95338377D02*
X134114107Y-95452662D01*
X133028393Y-95052662D02*
X133028393Y-95852662D01*
X133028393Y-95166948D02*
X132971250Y-95109805D01*
X132971250Y-95109805D02*
X132856965Y-95052662D01*
X132856965Y-95052662D02*
X132685536Y-95052662D01*
X132685536Y-95052662D02*
X132571250Y-95109805D01*
X132571250Y-95109805D02*
X132514108Y-95224091D01*
X132514108Y-95224091D02*
X132514108Y-95852662D01*
X131485536Y-95795520D02*
X131599822Y-95852662D01*
X131599822Y-95852662D02*
X131828394Y-95852662D01*
X131828394Y-95852662D02*
X131942679Y-95795520D01*
X131942679Y-95795520D02*
X131999822Y-95681234D01*
X131999822Y-95681234D02*
X131999822Y-95224091D01*
X131999822Y-95224091D02*
X131942679Y-95109805D01*
X131942679Y-95109805D02*
X131828394Y-95052662D01*
X131828394Y-95052662D02*
X131599822Y-95052662D01*
X131599822Y-95052662D02*
X131485536Y-95109805D01*
X131485536Y-95109805D02*
X131428394Y-95224091D01*
X131428394Y-95224091D02*
X131428394Y-95338377D01*
X131428394Y-95338377D02*
X131999822Y-95452662D01*
X130971251Y-95795520D02*
X130856965Y-95852662D01*
X130856965Y-95852662D02*
X130628394Y-95852662D01*
X130628394Y-95852662D02*
X130514108Y-95795520D01*
X130514108Y-95795520D02*
X130456965Y-95681234D01*
X130456965Y-95681234D02*
X130456965Y-95624091D01*
X130456965Y-95624091D02*
X130514108Y-95509805D01*
X130514108Y-95509805D02*
X130628394Y-95452662D01*
X130628394Y-95452662D02*
X130799823Y-95452662D01*
X130799823Y-95452662D02*
X130914108Y-95395520D01*
X130914108Y-95395520D02*
X130971251Y-95281234D01*
X130971251Y-95281234D02*
X130971251Y-95224091D01*
X130971251Y-95224091D02*
X130914108Y-95109805D01*
X130914108Y-95109805D02*
X130799823Y-95052662D01*
X130799823Y-95052662D02*
X130628394Y-95052662D01*
X130628394Y-95052662D02*
X130514108Y-95109805D01*
D11*
X147653333Y-63114819D02*
X147653333Y-63829104D01*
X147653333Y-63829104D02*
X147700952Y-63971961D01*
X147700952Y-63971961D02*
X147796190Y-64067200D01*
X147796190Y-64067200D02*
X147939047Y-64114819D01*
X147939047Y-64114819D02*
X148034285Y-64114819D01*
X147224761Y-63210057D02*
X147177142Y-63162438D01*
X147177142Y-63162438D02*
X147081904Y-63114819D01*
X147081904Y-63114819D02*
X146843809Y-63114819D01*
X146843809Y-63114819D02*
X146748571Y-63162438D01*
X146748571Y-63162438D02*
X146700952Y-63210057D01*
X146700952Y-63210057D02*
X146653333Y-63305295D01*
X146653333Y-63305295D02*
X146653333Y-63400533D01*
X146653333Y-63400533D02*
X146700952Y-63543390D01*
X146700952Y-63543390D02*
X147272380Y-64114819D01*
X147272380Y-64114819D02*
X146653333Y-64114819D01*
X99393333Y-45334819D02*
X99393333Y-46049104D01*
X99393333Y-46049104D02*
X99440952Y-46191961D01*
X99440952Y-46191961D02*
X99536190Y-46287200D01*
X99536190Y-46287200D02*
X99679047Y-46334819D01*
X99679047Y-46334819D02*
X99774285Y-46334819D01*
X99012380Y-45334819D02*
X98393333Y-45334819D01*
X98393333Y-45334819D02*
X98726666Y-45715771D01*
X98726666Y-45715771D02*
X98583809Y-45715771D01*
X98583809Y-45715771D02*
X98488571Y-45763390D01*
X98488571Y-45763390D02*
X98440952Y-45811009D01*
X98440952Y-45811009D02*
X98393333Y-45906247D01*
X98393333Y-45906247D02*
X98393333Y-46144342D01*
X98393333Y-46144342D02*
X98440952Y-46239580D01*
X98440952Y-46239580D02*
X98488571Y-46287200D01*
X98488571Y-46287200D02*
X98583809Y-46334819D01*
X98583809Y-46334819D02*
X98869523Y-46334819D01*
X98869523Y-46334819D02*
X98964761Y-46287200D01*
X98964761Y-46287200D02*
X99012380Y-46239580D01*
D12*
G04 #@! TO.C,J2*
X145940000Y-67310000D02*
X145940000Y-85200000D01*
X148700000Y-64660000D02*
X147320000Y-64660000D01*
X148700000Y-66040000D02*
X148700000Y-64660000D01*
X148700000Y-67310000D02*
X145940000Y-67310000D01*
X148700000Y-67310000D02*
X148700000Y-85200000D01*
X148700000Y-85200000D02*
X145940000Y-85200000D01*
G04 #@! TO.C,J3*
X97680000Y-49530000D02*
X97680000Y-67420000D01*
X100440000Y-46880000D02*
X99060000Y-46880000D01*
X100440000Y-48260000D02*
X100440000Y-46880000D01*
X100440000Y-49530000D02*
X97680000Y-49530000D01*
X100440000Y-49530000D02*
X100440000Y-67420000D01*
X100440000Y-67420000D02*
X97680000Y-67420000D01*
G04 #@! TD*
%LPC*%
D13*
G04 #@! TO.C,U1*
X116840000Y-48260000D03*
X116840000Y-50800000D03*
X119380000Y-48260000D03*
X119380000Y-50800000D03*
X121920000Y-48260000D03*
X121920000Y-50800000D03*
D14*
X124460000Y-48260000D03*
D13*
X124460000Y-50800000D03*
X127000000Y-48260000D03*
X127000000Y-50800000D03*
G04 #@! TD*
D15*
G04 #@! TO.C,J2*
X147320000Y-66040000D03*
D16*
X147320000Y-68580000D03*
X147320000Y-71120000D03*
X147320000Y-73660000D03*
X147320000Y-76200000D03*
X147320000Y-78740000D03*
X147320000Y-81280000D03*
X147320000Y-83820000D03*
G04 #@! TD*
D15*
G04 #@! TO.C,J3*
X99060000Y-48260000D03*
D16*
X99060000Y-50800000D03*
X99060000Y-53340000D03*
X99060000Y-55880000D03*
X99060000Y-58420000D03*
X99060000Y-60960000D03*
X99060000Y-63500000D03*
X99060000Y-66040000D03*
G04 #@! TD*
%LPD*%
M02*
