G04 #@! TF.GenerationSoftware,KiCad,Pcbnew,9.0.6*
G04 #@! TF.CreationDate,2025-12-22T19:01:13-06:00*
G04 #@! TF.ProjectId,PCB TM171,50434220-544d-4313-9731-2e6b69636164,rev?*
G04 #@! TF.SameCoordinates,Original*
G04 #@! TF.FileFunction,Copper,L1,Top*
G04 #@! TF.FilePolarity,Positive*
%FSLAX46Y46*%
G04 Gerber Fmt 4.6, Leading zero omitted, Abs format (unit mm)*
G04 Created by KiCad (PCBNEW 9.0.6) date 2025-12-22 19:01:13*
%MOMM*%
%LPD*%
G01*
G04 APERTURE LIST*
G04 Aperture macros list*
%AMRoundRect*
0 Rectangle with rounded corners*
0 $1 Rounding radius*
0 $2 $3 $4 $5 $6 $7 $8 $9 X,Y pos of 4 corners*
0 Add a 4 corners polygon primitive as box body*
4,1,4,$2,$3,$4,$5,$6,$7,$8,$9,$2,$3,0*
0 Add four circle primitives for the rounded corners*
1,1,$1+$1,$2,$3*
1,1,$1+$1,$4,$5*
1,1,$1+$1,$6,$7*
1,1,$1+$1,$8,$9*
0 Add four rect primitives between the rounded corners*
20,1,$1+$1,$2,$3,$4,$5,0*
20,1,$1+$1,$4,$5,$6,$7,0*
20,1,$1+$1,$6,$7,$8,$9,0*
20,1,$1+$1,$8,$9,$2,$3,0*%
%AMFreePoly0*
4,1,33,0.232228,0.765552,0.377117,0.705537,0.507515,0.618408,0.618408,0.507515,0.705537,0.377117,0.765552,0.232228,0.796148,0.078414,0.796148,-0.078414,0.765552,-0.232228,0.705537,-0.377117,0.618408,-0.507515,0.507515,-0.618408,0.377117,-0.705537,0.232228,-0.765552,0.078414,-0.796148,-0.078414,-0.796148,-0.232228,-0.765552,-0.377117,-0.705537,-0.507515,-0.618408,-0.618408,-0.507515,
-0.705537,-0.377117,-0.765552,-0.232228,-0.796148,-0.078414,-0.796148,0.078414,-0.765552,0.232228,-0.705537,0.377117,-0.618408,0.507515,-0.507515,0.618408,-0.377117,0.705537,-0.232228,0.765552,-0.078414,0.796148,0.078414,0.796148,0.232228,0.765552,0.232228,0.765552,$1*%
G04 Aperture macros list end*
G04 #@! TA.AperFunction,CastellatedPad*
%ADD10C,1.600000*%
G04 #@! TD*
G04 #@! TA.AperFunction,ComponentPad*
%ADD11C,1.600000*%
G04 #@! TD*
G04 #@! TA.AperFunction,CastellatedPad*
%ADD12FreePoly0,0.000000*%
G04 #@! TD*
G04 #@! TA.AperFunction,SMDPad,CuDef*
%ADD13RoundRect,0.250000X-0.702500X-0.750000X0.702500X-0.750000X0.702500X0.750000X-0.702500X0.750000X0*%
G04 #@! TD*
G04 #@! TA.AperFunction,ComponentPad*
%ADD14R,1.700000X1.700000*%
G04 #@! TD*
G04 #@! TA.AperFunction,ComponentPad*
%ADD15C,1.700000*%
G04 #@! TD*
G04 #@! TA.AperFunction,ViaPad*
%ADD16C,0.600000*%
G04 #@! TD*
G04 #@! TA.AperFunction,Conductor*
%ADD17C,0.800000*%
G04 #@! TD*
G04 #@! TA.AperFunction,Conductor*
%ADD18C,0.500000*%
G04 #@! TD*
G04 APERTURE END LIST*
D10*
G04 #@! TO.P,U1,1,RX*
G04 #@! TO.N,Net-(J3-Pin_2)*
X116840000Y-48260000D03*
D11*
X116840000Y-50800000D03*
D10*
G04 #@! TO.P,U1,2,TX*
G04 #@! TO.N,Net-(J3-Pin_1)*
X119380000Y-48260000D03*
D11*
X119380000Y-50800000D03*
D10*
G04 #@! TO.P,U1,3,5V*
G04 #@! TO.N,VCC*
X121920000Y-48260000D03*
D11*
X121920000Y-50800000D03*
D12*
G04 #@! TO.P,U1,4,GND*
G04 #@! TO.N,GND*
X124460000Y-48260000D03*
D11*
X124460000Y-50800000D03*
D10*
G04 #@! TO.P,U1,5,GND*
X127000000Y-48260000D03*
D11*
X127000000Y-50800000D03*
D13*
G04 #@! TO.P,U1,6*
G04 #@! TO.N,N/C*
X109570000Y-48260000D03*
X109570000Y-88260000D03*
X134270000Y-48260000D03*
X134270000Y-88260000D03*
G04 #@! TD*
D14*
G04 #@! TO.P,J2,1,Pin_1*
G04 #@! TO.N,unconnected-(J2-Pin_1-Pad1)*
X147320000Y-66040000D03*
D15*
G04 #@! TO.P,J2,2,Pin_2*
G04 #@! TO.N,GND*
X147320000Y-68580000D03*
G04 #@! TO.P,J2,3,Pin_3*
X147320000Y-71120000D03*
G04 #@! TO.P,J2,4,Pin_4*
G04 #@! TO.N,VCC*
X147320000Y-73660000D03*
G04 #@! TO.P,J2,5,Pin_5*
G04 #@! TO.N,unconnected-(J2-Pin_5-Pad5)*
X147320000Y-76200000D03*
G04 #@! TO.P,J2,6,Pin_6*
G04 #@! TO.N,unconnected-(J2-Pin_6-Pad6)*
X147320000Y-78740000D03*
G04 #@! TO.P,J2,7,Pin_7*
G04 #@! TO.N,unconnected-(J2-Pin_7-Pad7)*
X147320000Y-81280000D03*
G04 #@! TO.P,J2,8,Pin_8*
G04 #@! TO.N,unconnected-(J2-Pin_8-Pad8)*
X147320000Y-83820000D03*
G04 #@! TD*
D14*
G04 #@! TO.P,J3,1,Pin_1*
G04 #@! TO.N,Net-(J3-Pin_1)*
X99060000Y-48260000D03*
D15*
G04 #@! TO.P,J3,2,Pin_2*
G04 #@! TO.N,Net-(J3-Pin_2)*
X99060000Y-50800000D03*
G04 #@! TO.P,J3,3,Pin_3*
G04 #@! TO.N,unconnected-(J3-Pin_3-Pad3)*
X99060000Y-53340000D03*
G04 #@! TO.P,J3,4,Pin_4*
G04 #@! TO.N,unconnected-(J3-Pin_4-Pad4)*
X99060000Y-55880000D03*
G04 #@! TO.P,J3,5,Pin_5*
G04 #@! TO.N,unconnected-(J3-Pin_5-Pad5)*
X99060000Y-58420000D03*
G04 #@! TO.P,J3,6,Pin_6*
G04 #@! TO.N,unconnected-(J3-Pin_6-Pad6)*
X99060000Y-60960000D03*
G04 #@! TO.P,J3,7,Pin_7*
G04 #@! TO.N,unconnected-(J3-Pin_7-Pad7)*
X99060000Y-63500000D03*
G04 #@! TO.P,J3,8,Pin_8*
G04 #@! TO.N,unconnected-(J3-Pin_8-Pad8)*
X99060000Y-66040000D03*
G04 #@! TD*
D16*
G04 #@! TO.N,GND*
X121920000Y-81280000D03*
X132080000Y-86360000D03*
X111760000Y-91440000D03*
X142240000Y-55880000D03*
X142240000Y-66040000D03*
X101600000Y-60960000D03*
X116840000Y-71120000D03*
X116840000Y-91440000D03*
X121920000Y-71120000D03*
X127000000Y-76200000D03*
X132080000Y-71120000D03*
X147320000Y-55880000D03*
X132080000Y-50800000D03*
X137160000Y-71120000D03*
X121920000Y-66040000D03*
X111760000Y-86360000D03*
X147320000Y-60960000D03*
X137160000Y-60960000D03*
X121920000Y-86360000D03*
X106680000Y-81280000D03*
X116840000Y-60960000D03*
X116840000Y-55880000D03*
X106680000Y-55880000D03*
X132080000Y-81280000D03*
X101600000Y-96520000D03*
X137160000Y-66040000D03*
X137160000Y-50800000D03*
X132080000Y-76200000D03*
X137160000Y-76200000D03*
X142240000Y-45720000D03*
X116840000Y-86360000D03*
X111760000Y-81280000D03*
X121920000Y-60960000D03*
X127000000Y-66040000D03*
X127000000Y-81280000D03*
X142240000Y-86360000D03*
X147320000Y-91440000D03*
X142240000Y-76200000D03*
X116840000Y-66040000D03*
X121920000Y-91440000D03*
X137160000Y-96520000D03*
X111760000Y-55880000D03*
X101600000Y-66040000D03*
X106680000Y-60960000D03*
X106680000Y-71120000D03*
X127000000Y-45720000D03*
X101600000Y-45720000D03*
X132080000Y-60960000D03*
X127000000Y-96520000D03*
X132080000Y-55880000D03*
X106680000Y-66040000D03*
X111760000Y-71120000D03*
X132080000Y-45720000D03*
X127000000Y-86360000D03*
X116840000Y-76200000D03*
X101600000Y-81280000D03*
X101600000Y-55880000D03*
X106680000Y-96520000D03*
X137160000Y-86360000D03*
X111760000Y-96520000D03*
X111760000Y-60960000D03*
X106680000Y-45720000D03*
X132080000Y-66040000D03*
X121920000Y-45720000D03*
X147320000Y-86360000D03*
X101600000Y-76200000D03*
X106680000Y-86360000D03*
X106680000Y-76200000D03*
X137160000Y-45720000D03*
X142240000Y-50800000D03*
X116840000Y-81280000D03*
X127000000Y-71120000D03*
X142240000Y-60960000D03*
X137160000Y-81280000D03*
X116840000Y-45720000D03*
X111760000Y-66040000D03*
X137160000Y-91440000D03*
X142240000Y-71120000D03*
X101600000Y-86360000D03*
X132080000Y-91440000D03*
X121920000Y-76200000D03*
X111760000Y-45720000D03*
X116840000Y-96520000D03*
X111760000Y-76200000D03*
X142240000Y-91440000D03*
X147320000Y-45720000D03*
X127000000Y-91440000D03*
X101600000Y-71120000D03*
X127000000Y-60960000D03*
X142240000Y-81280000D03*
X106680000Y-91440000D03*
X147320000Y-50800000D03*
X142240000Y-96520000D03*
X121920000Y-96520000D03*
X127000000Y-55880000D03*
X132080000Y-96520000D03*
X101600000Y-91440000D03*
X121920000Y-55880000D03*
X137160000Y-55880000D03*
G04 #@! TD*
D17*
G04 #@! TO.N,VCC*
X121920000Y-50800000D02*
X121920000Y-53086000D01*
X142494000Y-73660000D02*
X147320000Y-73660000D01*
X121920000Y-53086000D02*
X142494000Y-73660000D01*
X121920000Y-48260000D02*
X121920000Y-50800000D01*
D18*
G04 #@! TO.N,Net-(J3-Pin_1)*
X119380000Y-50800000D02*
X119380000Y-48260000D01*
G04 #@! TO.N,Net-(J3-Pin_2)*
X116840000Y-48260000D02*
X116840000Y-50800000D01*
G04 #@! TD*
G04 #@! TA.AperFunction,Conductor*
G04 #@! TO.N,GND*
G36*
X112875120Y-43961685D02*
G01*
X112920875Y-44014489D01*
X112930819Y-44083647D01*
X112901794Y-44147203D01*
X112895762Y-44153681D01*
X112717376Y-44332066D01*
X112717370Y-44332073D01*
X112549754Y-44550516D01*
X112412080Y-44788971D01*
X112412075Y-44788982D01*
X112306704Y-45043369D01*
X112235441Y-45309331D01*
X112235438Y-45309344D01*
X112199501Y-45582315D01*
X112199500Y-45582332D01*
X112199500Y-45857667D01*
X112199501Y-45857684D01*
X112235438Y-46130655D01*
X112235439Y-46130660D01*
X112235440Y-46130666D01*
X112235441Y-46130668D01*
X112306704Y-46396630D01*
X112412075Y-46651017D01*
X112412080Y-46651028D01*
X112480770Y-46770001D01*
X112549751Y-46889479D01*
X112549753Y-46889482D01*
X112549754Y-46889483D01*
X112717370Y-47107926D01*
X112717376Y-47107933D01*
X112912066Y-47302623D01*
X112912073Y-47302629D01*
X113029763Y-47392935D01*
X113130521Y-47470249D01*
X113283778Y-47558732D01*
X113368971Y-47607919D01*
X113368976Y-47607921D01*
X113368979Y-47607923D01*
X113623368Y-47713295D01*
X113889334Y-47784560D01*
X114162326Y-47820500D01*
X114162333Y-47820500D01*
X114437667Y-47820500D01*
X114437674Y-47820500D01*
X114710666Y-47784560D01*
X114976632Y-47713295D01*
X115231021Y-47607923D01*
X115469479Y-47470249D01*
X115552122Y-47406834D01*
X115617288Y-47381642D01*
X115685733Y-47395680D01*
X115735723Y-47444494D01*
X115751387Y-47512585D01*
X115729483Y-47573758D01*
X115730259Y-47574234D01*
X115727985Y-47577944D01*
X115727937Y-47578079D01*
X115727718Y-47578379D01*
X115727717Y-47578381D01*
X115634781Y-47760776D01*
X115571522Y-47955465D01*
X115539500Y-48157648D01*
X115539500Y-48362351D01*
X115571522Y-48564534D01*
X115634781Y-48759223D01*
X115683668Y-48855167D01*
X115716447Y-48919500D01*
X115727715Y-48941613D01*
X115848028Y-49107213D01*
X115848034Y-49107219D01*
X115992781Y-49251966D01*
X116038384Y-49285098D01*
X116081050Y-49340425D01*
X116089500Y-49385416D01*
X116089500Y-49674582D01*
X116069815Y-49741621D01*
X116038385Y-49774900D01*
X115992787Y-49808028D01*
X115992782Y-49808032D01*
X115848028Y-49952786D01*
X115727715Y-50118386D01*
X115634781Y-50300776D01*
X115571522Y-50495465D01*
X115539500Y-50697648D01*
X115539500Y-50902351D01*
X115571522Y-51104534D01*
X115634781Y-51299223D01*
X115698691Y-51424653D01*
X115703401Y-51433896D01*
X115727715Y-51481613D01*
X115848028Y-51647213D01*
X115992786Y-51791971D01*
X116147749Y-51904556D01*
X116158390Y-51912287D01*
X116242319Y-51955051D01*
X116340776Y-52005218D01*
X116340778Y-52005218D01*
X116340781Y-52005220D01*
X116445137Y-52039127D01*
X116535465Y-52068477D01*
X116636557Y-52084488D01*
X116737648Y-52100500D01*
X116737649Y-52100500D01*
X116942351Y-52100500D01*
X116942352Y-52100500D01*
X117144534Y-52068477D01*
X117339219Y-52005220D01*
X117521610Y-51912287D01*
X117634726Y-51830104D01*
X117687213Y-51791971D01*
X117687215Y-51791968D01*
X117687219Y-51791966D01*
X117831966Y-51647219D01*
X117831968Y-51647215D01*
X117831971Y-51647213D01*
X117952284Y-51481614D01*
X117952286Y-51481611D01*
X117952287Y-51481610D01*
X117999516Y-51388917D01*
X118047489Y-51338123D01*
X118115310Y-51321328D01*
X118181445Y-51343865D01*
X118220483Y-51388917D01*
X118264348Y-51475006D01*
X118267715Y-51481614D01*
X118388028Y-51647213D01*
X118532786Y-51791971D01*
X118687749Y-51904556D01*
X118698390Y-51912287D01*
X118782319Y-51955051D01*
X118880776Y-52005218D01*
X118880778Y-52005218D01*
X118880781Y-52005220D01*
X118985137Y-52039127D01*
X119075465Y-52068477D01*
X119176557Y-52084488D01*
X119277648Y-52100500D01*
X119277649Y-52100500D01*
X119482351Y-52100500D01*
X119482352Y-52100500D01*
X119684534Y-52068477D01*
X119879219Y-52005220D01*
X120061610Y-51912287D01*
X120174726Y-51830104D01*
X120227213Y-51791971D01*
X120227215Y-51791968D01*
X120227219Y-51791966D01*
X120371966Y-51647219D01*
X120371968Y-51647215D01*
X120371971Y-51647213D01*
X120492284Y-51481614D01*
X120492286Y-51481611D01*
X120492287Y-51481610D01*
X120539516Y-51388917D01*
X120587489Y-51338123D01*
X120655310Y-51321328D01*
X120721445Y-51343865D01*
X120760483Y-51388917D01*
X120804348Y-51475006D01*
X120807715Y-51481614D01*
X120928028Y-51647213D01*
X120983181Y-51702366D01*
X121016666Y-51763689D01*
X121019500Y-51790047D01*
X121019500Y-53174696D01*
X121054103Y-53348658D01*
X121054105Y-53348666D01*
X121085526Y-53424524D01*
X121085529Y-53424529D01*
X121088046Y-53430606D01*
X121121987Y-53512547D01*
X121181063Y-53600959D01*
X121184169Y-53605607D01*
X121184172Y-53605613D01*
X121220534Y-53660034D01*
X121220535Y-53660035D01*
X141919958Y-74359459D01*
X141919959Y-74359460D01*
X141919962Y-74359462D01*
X141919964Y-74359464D01*
X141993707Y-74408737D01*
X141993709Y-74408739D01*
X142067454Y-74458014D01*
X142115452Y-74477895D01*
X142231334Y-74525895D01*
X142405303Y-74560499D01*
X142405307Y-74560500D01*
X142405308Y-74560500D01*
X142405309Y-74560500D01*
X146259242Y-74560500D01*
X146326281Y-74580185D01*
X146346923Y-74596819D01*
X146440213Y-74690109D01*
X146612182Y-74815050D01*
X146620946Y-74819516D01*
X146671742Y-74867491D01*
X146688536Y-74935312D01*
X146665998Y-75001447D01*
X146620946Y-75040484D01*
X146612182Y-75044949D01*
X146440213Y-75169890D01*
X146289890Y-75320213D01*
X146164951Y-75492179D01*
X146068444Y-75681585D01*
X146002753Y-75883760D01*
X145969500Y-76093713D01*
X145969500Y-76306286D01*
X146002753Y-76516239D01*
X146068444Y-76718414D01*
X146164951Y-76907820D01*
X146289890Y-77079786D01*
X146440213Y-77230109D01*
X146612182Y-77355050D01*
X146620946Y-77359516D01*
X146671742Y-77407491D01*
X146688536Y-77475312D01*
X146665998Y-77541447D01*
X146620946Y-77580484D01*
X146612182Y-77584949D01*
X146440213Y-77709890D01*
X146289890Y-77860213D01*
X146164951Y-78032179D01*
X146068444Y-78221585D01*
X146002753Y-78423760D01*
X145969500Y-78633713D01*
X145969500Y-78846286D01*
X146002753Y-79056239D01*
X146068444Y-79258414D01*
X146164951Y-79447820D01*
X146289890Y-79619786D01*
X146440213Y-79770109D01*
X146612182Y-79895050D01*
X146620946Y-79899516D01*
X146671742Y-79947491D01*
X146688536Y-80015312D01*
X146665998Y-80081447D01*
X146620946Y-80120484D01*
X146612182Y-80124949D01*
X146440213Y-80249890D01*
X146289890Y-80400213D01*
X146164951Y-80572179D01*
X146068444Y-80761585D01*
X146002753Y-80963760D01*
X145969500Y-81173713D01*
X145969500Y-81386286D01*
X146002753Y-81596239D01*
X146068444Y-81798414D01*
X146164951Y-81987820D01*
X146289890Y-82159786D01*
X146440213Y-82310109D01*
X146612182Y-82435050D01*
X146620946Y-82439516D01*
X146671742Y-82487491D01*
X146688536Y-82555312D01*
X146665998Y-82621447D01*
X146620946Y-82660484D01*
X146612182Y-82664949D01*
X146440213Y-82789890D01*
X146289890Y-82940213D01*
X146164951Y-83112179D01*
X146068444Y-83301585D01*
X146002753Y-83503760D01*
X145969500Y-83713713D01*
X145969500Y-83926286D01*
X146000668Y-84123076D01*
X146002754Y-84136243D01*
X146057521Y-84304799D01*
X146068444Y-84338414D01*
X146164951Y-84527820D01*
X146289890Y-84699786D01*
X146440213Y-84850109D01*
X146612179Y-84975048D01*
X146612181Y-84975049D01*
X146612184Y-84975051D01*
X146801588Y-85071557D01*
X147003757Y-85137246D01*
X147213713Y-85170500D01*
X147213714Y-85170500D01*
X147426286Y-85170500D01*
X147426287Y-85170500D01*
X147636243Y-85137246D01*
X147838412Y-85071557D01*
X148027816Y-84975051D01*
X148072406Y-84942655D01*
X148199786Y-84850109D01*
X148199788Y-84850106D01*
X148199792Y-84850104D01*
X148350104Y-84699792D01*
X148350106Y-84699788D01*
X148350109Y-84699786D01*
X148475048Y-84527820D01*
X148475047Y-84527820D01*
X148475051Y-84527816D01*
X148571557Y-84338412D01*
X148637246Y-84136243D01*
X148670500Y-83926287D01*
X148670500Y-83713713D01*
X148637246Y-83503757D01*
X148571557Y-83301588D01*
X148475051Y-83112184D01*
X148475049Y-83112181D01*
X148475048Y-83112179D01*
X148350109Y-82940213D01*
X148199786Y-82789890D01*
X148027820Y-82664951D01*
X148027115Y-82664591D01*
X148019054Y-82660485D01*
X147968259Y-82612512D01*
X147951463Y-82544692D01*
X147973999Y-82478556D01*
X148019054Y-82439515D01*
X148027816Y-82435051D01*
X148181909Y-82323097D01*
X148199786Y-82310109D01*
X148199788Y-82310106D01*
X148199792Y-82310104D01*
X148350104Y-82159792D01*
X148350106Y-82159788D01*
X148350109Y-82159786D01*
X148475048Y-81987820D01*
X148475047Y-81987820D01*
X148475051Y-81987816D01*
X148571557Y-81798412D01*
X148637246Y-81596243D01*
X148670500Y-81386287D01*
X148670500Y-81173713D01*
X148637246Y-80963757D01*
X148571557Y-80761588D01*
X148475051Y-80572184D01*
X148475049Y-80572181D01*
X148475048Y-80572179D01*
X148350109Y-80400213D01*
X148199786Y-80249890D01*
X148027820Y-80124951D01*
X148027115Y-80124591D01*
X148019054Y-80120485D01*
X147968259Y-80072512D01*
X147951463Y-80004692D01*
X147973999Y-79938556D01*
X148019054Y-79899515D01*
X148027816Y-79895051D01*
X148049789Y-79879086D01*
X148199786Y-79770109D01*
X148199788Y-79770106D01*
X148199792Y-79770104D01*
X148350104Y-79619792D01*
X148350106Y-79619788D01*
X148350109Y-79619786D01*
X148475048Y-79447820D01*
X148475047Y-79447820D01*
X148475051Y-79447816D01*
X148571557Y-79258412D01*
X148637246Y-79056243D01*
X148670500Y-78846287D01*
X148670500Y-78633713D01*
X148637246Y-78423757D01*
X148571557Y-78221588D01*
X148475051Y-78032184D01*
X148475049Y-78032181D01*
X148475048Y-78032179D01*
X148350109Y-77860213D01*
X148199786Y-77709890D01*
X148027820Y-77584951D01*
X148027115Y-77584591D01*
X148019054Y-77580485D01*
X147968259Y-77532512D01*
X147951463Y-77464692D01*
X147973999Y-77398556D01*
X148019054Y-77359515D01*
X148027816Y-77355051D01*
X148049789Y-77339086D01*
X148199786Y-77230109D01*
X148199788Y-77230106D01*
X148199792Y-77230104D01*
X148350104Y-77079792D01*
X148350106Y-77079788D01*
X148350109Y-77079786D01*
X148475048Y-76907820D01*
X148475047Y-76907820D01*
X148475051Y-76907816D01*
X148571557Y-76718412D01*
X148637246Y-76516243D01*
X148670500Y-76306287D01*
X148670500Y-76093713D01*
X148637246Y-75883757D01*
X148571557Y-75681588D01*
X148475051Y-75492184D01*
X148475049Y-75492181D01*
X148475048Y-75492179D01*
X148350109Y-75320213D01*
X148199786Y-75169890D01*
X148027820Y-75044951D01*
X148027115Y-75044591D01*
X148019054Y-75040485D01*
X147968259Y-74992512D01*
X147951463Y-74924692D01*
X147973999Y-74858556D01*
X148019054Y-74819515D01*
X148027816Y-74815051D01*
X148049789Y-74799086D01*
X148199786Y-74690109D01*
X148199788Y-74690106D01*
X148199792Y-74690104D01*
X148350104Y-74539792D01*
X148350106Y-74539788D01*
X148350109Y-74539786D01*
X148475048Y-74367820D01*
X148475047Y-74367820D01*
X148475051Y-74367816D01*
X148571557Y-74178412D01*
X148637246Y-73976243D01*
X148670500Y-73766287D01*
X148670500Y-73553713D01*
X148637246Y-73343757D01*
X148571557Y-73141588D01*
X148475051Y-72952184D01*
X148475049Y-72952181D01*
X148475048Y-72952179D01*
X148350109Y-72780213D01*
X148199786Y-72629890D01*
X148027817Y-72504949D01*
X148018504Y-72500204D01*
X147967707Y-72452230D01*
X147950912Y-72384409D01*
X147973449Y-72318274D01*
X148018507Y-72279232D01*
X148027555Y-72274622D01*
X148122672Y-72205514D01*
X148122673Y-72205514D01*
X147505177Y-71588019D01*
X147512993Y-71585925D01*
X147627007Y-71520099D01*
X147720099Y-71427007D01*
X147785925Y-71312993D01*
X147788019Y-71305177D01*
X148405514Y-71922673D01*
X148405514Y-71922672D01*
X148474622Y-71827554D01*
X148571095Y-71638217D01*
X148636757Y-71436130D01*
X148636757Y-71436127D01*
X148670000Y-71226246D01*
X148670000Y-71013753D01*
X148636757Y-70803872D01*
X148636757Y-70803869D01*
X148571095Y-70601782D01*
X148474620Y-70412442D01*
X148405515Y-70317326D01*
X148405513Y-70317326D01*
X147788018Y-70934821D01*
X147785925Y-70927007D01*
X147720099Y-70812993D01*
X147627007Y-70719901D01*
X147512993Y-70654075D01*
X147505177Y-70651980D01*
X148122672Y-70034484D01*
X148027550Y-69965375D01*
X148017954Y-69960486D01*
X147967157Y-69912512D01*
X147950361Y-69844692D01*
X147972897Y-69778556D01*
X148017954Y-69739514D01*
X148027554Y-69734622D01*
X148122672Y-69665514D01*
X148122673Y-69665514D01*
X147505177Y-69048019D01*
X147512993Y-69045925D01*
X147627007Y-68980099D01*
X147720099Y-68887007D01*
X147785925Y-68772993D01*
X147788019Y-68765177D01*
X148405514Y-69382673D01*
X148405514Y-69382672D01*
X148474622Y-69287554D01*
X148571095Y-69098217D01*
X148636757Y-68896130D01*
X148636757Y-68896127D01*
X148670000Y-68686246D01*
X148670000Y-68473753D01*
X148636757Y-68263872D01*
X148636757Y-68263869D01*
X148571095Y-68061782D01*
X148474620Y-67872442D01*
X148405515Y-67777326D01*
X148405513Y-67777326D01*
X147788018Y-68394821D01*
X147785925Y-68387007D01*
X147720099Y-68272993D01*
X147627007Y-68179901D01*
X147512993Y-68114075D01*
X147505177Y-68111980D01*
X148132605Y-67484551D01*
X148139174Y-67453282D01*
X148188225Y-67403524D01*
X148235174Y-67388638D01*
X148277483Y-67384091D01*
X148412331Y-67333796D01*
X148527546Y-67247546D01*
X148613796Y-67132331D01*
X148664091Y-66997483D01*
X148670500Y-66937873D01*
X148670499Y-65142128D01*
X148664091Y-65082517D01*
X148613796Y-64947669D01*
X148613795Y-64947668D01*
X148613793Y-64947664D01*
X148527547Y-64832455D01*
X148527544Y-64832452D01*
X148412335Y-64746206D01*
X148412328Y-64746202D01*
X148277482Y-64695908D01*
X148277483Y-64695908D01*
X148217883Y-64689501D01*
X148217881Y-64689500D01*
X148217873Y-64689500D01*
X148217864Y-64689500D01*
X146422129Y-64689500D01*
X146422123Y-64689501D01*
X146362516Y-64695908D01*
X146227671Y-64746202D01*
X146227664Y-64746206D01*
X146112455Y-64832452D01*
X146112452Y-64832455D01*
X146026206Y-64947664D01*
X146026202Y-64947671D01*
X145975908Y-65082517D01*
X145969501Y-65142116D01*
X145969501Y-65142123D01*
X145969500Y-65142135D01*
X145969500Y-66937870D01*
X145969501Y-66937876D01*
X145975908Y-66997483D01*
X146026202Y-67132328D01*
X146026206Y-67132335D01*
X146112452Y-67247544D01*
X146112455Y-67247547D01*
X146227664Y-67333793D01*
X146227671Y-67333797D01*
X146272618Y-67350561D01*
X146362517Y-67384091D01*
X146404826Y-67388639D01*
X146469374Y-67415375D01*
X146509223Y-67472767D01*
X146511114Y-67488272D01*
X147134822Y-68111980D01*
X147127007Y-68114075D01*
X147012993Y-68179901D01*
X146919901Y-68272993D01*
X146854075Y-68387007D01*
X146851980Y-68394822D01*
X146234484Y-67777326D01*
X146234483Y-67777326D01*
X146165377Y-67872445D01*
X146165376Y-67872447D01*
X146068904Y-68061782D01*
X146003242Y-68263869D01*
X146003242Y-68263872D01*
X145970000Y-68473753D01*
X145970000Y-68686246D01*
X146003242Y-68896127D01*
X146003242Y-68896130D01*
X146068904Y-69098217D01*
X146165375Y-69287550D01*
X146234484Y-69382672D01*
X146851980Y-68765176D01*
X146854075Y-68772993D01*
X146919901Y-68887007D01*
X147012993Y-68980099D01*
X147127007Y-69045925D01*
X147134822Y-69048019D01*
X146517326Y-69665513D01*
X146517326Y-69665515D01*
X146612444Y-69734622D01*
X146622048Y-69739516D01*
X146672844Y-69787491D01*
X146689638Y-69855312D01*
X146667100Y-69921447D01*
X146622048Y-69960484D01*
X146612452Y-69965373D01*
X146612445Y-69965377D01*
X146517326Y-70034483D01*
X146517326Y-70034484D01*
X147134822Y-70651980D01*
X147127007Y-70654075D01*
X147012993Y-70719901D01*
X146919901Y-70812993D01*
X146854075Y-70927007D01*
X146851980Y-70934822D01*
X146234484Y-70317326D01*
X146234483Y-70317326D01*
X146165377Y-70412445D01*
X146165376Y-70412447D01*
X146068904Y-70601782D01*
X146003242Y-70803869D01*
X146003242Y-70803872D01*
X145970000Y-71013753D01*
X145970000Y-71226246D01*
X146003242Y-71436127D01*
X146003242Y-71436130D01*
X146068904Y-71638217D01*
X146165375Y-71827550D01*
X146234484Y-71922672D01*
X146851980Y-71305176D01*
X146854075Y-71312993D01*
X146919901Y-71427007D01*
X147012993Y-71520099D01*
X147127007Y-71585925D01*
X147134822Y-71588019D01*
X146517326Y-72205513D01*
X146517326Y-72205515D01*
X146612444Y-72274622D01*
X146621495Y-72279234D01*
X146672292Y-72327208D01*
X146689087Y-72395029D01*
X146666550Y-72461164D01*
X146621499Y-72500202D01*
X146612182Y-72504949D01*
X146440213Y-72629890D01*
X146440209Y-72629894D01*
X146346923Y-72723181D01*
X146285600Y-72756666D01*
X146259242Y-72759500D01*
X142918362Y-72759500D01*
X142851323Y-72739815D01*
X142830681Y-72723181D01*
X122856819Y-52749319D01*
X122842115Y-52722391D01*
X122825523Y-52696573D01*
X122824631Y-52690372D01*
X122823334Y-52687996D01*
X122820500Y-52661638D01*
X122820500Y-52637973D01*
X135369500Y-52637973D01*
X135369500Y-52882026D01*
X135391948Y-53023760D01*
X135407679Y-53123076D01*
X135480975Y-53348658D01*
X135483097Y-53355187D01*
X135593896Y-53572642D01*
X135737339Y-53770076D01*
X135737343Y-53770081D01*
X135909918Y-53942656D01*
X135909923Y-53942660D01*
X136054659Y-54047816D01*
X136107361Y-54086106D01*
X136324815Y-54196904D01*
X136556924Y-54272321D01*
X136797973Y-54310500D01*
X136797974Y-54310500D01*
X137042026Y-54310500D01*
X137042027Y-54310500D01*
X137283076Y-54272321D01*
X137515185Y-54196904D01*
X137732639Y-54086106D01*
X137930083Y-53942655D01*
X138102655Y-53770083D01*
X138246106Y-53572639D01*
X138356904Y-53355185D01*
X138432321Y-53123076D01*
X138470500Y-52882027D01*
X138470500Y-52637973D01*
X138432321Y-52396924D01*
X138356904Y-52164815D01*
X138246106Y-51947361D01*
X138175165Y-51849719D01*
X138102660Y-51749923D01*
X138102656Y-51749918D01*
X137930081Y-51577343D01*
X137930076Y-51577339D01*
X137732642Y-51433896D01*
X137732641Y-51433895D01*
X137732639Y-51433894D01*
X137515185Y-51323096D01*
X137283076Y-51247679D01*
X137283074Y-51247678D01*
X137283072Y-51247678D01*
X137104109Y-51219333D01*
X137042027Y-51209500D01*
X136797973Y-51209500D01*
X136742093Y-51218350D01*
X136556927Y-51247678D01*
X136324812Y-51323097D01*
X136107357Y-51433896D01*
X135909923Y-51577339D01*
X135909918Y-51577343D01*
X135737343Y-51749918D01*
X135737339Y-51749923D01*
X135593896Y-51947357D01*
X135483097Y-52164812D01*
X135407678Y-52396927D01*
X135369500Y-52637973D01*
X122820500Y-52637973D01*
X122820500Y-51790047D01*
X122840185Y-51723008D01*
X122856819Y-51702366D01*
X122879399Y-51679786D01*
X122911966Y-51647219D01*
X122911968Y-51647215D01*
X122911971Y-51647213D01*
X123032286Y-51481611D01*
X123032420Y-51481349D01*
X123079795Y-51388369D01*
X123127769Y-51337573D01*
X123195590Y-51320778D01*
X123261725Y-51343315D01*
X123300765Y-51388369D01*
X123348139Y-51481347D01*
X123410279Y-51566876D01*
X124032804Y-50944351D01*
X124040667Y-50973694D01*
X124099910Y-51076306D01*
X124183694Y-51160090D01*
X124286306Y-51219333D01*
X124315646Y-51227194D01*
X123693121Y-51849719D01*
X123693122Y-51849720D01*
X123778640Y-51911852D01*
X123778649Y-51911858D01*
X123960968Y-52004755D01*
X124155582Y-52067990D01*
X124357683Y-52100000D01*
X124562317Y-52100000D01*
X124764417Y-52067990D01*
X124959031Y-52004755D01*
X125141349Y-51911859D01*
X125226876Y-51849719D01*
X125226877Y-51849718D01*
X124604353Y-51227194D01*
X124633694Y-51219333D01*
X124736306Y-51160090D01*
X124820090Y-51076306D01*
X124879333Y-50973694D01*
X124887194Y-50944353D01*
X125509718Y-51566877D01*
X125509719Y-51566876D01*
X125571861Y-51481347D01*
X125619515Y-51387820D01*
X125667489Y-51337024D01*
X125735310Y-51320228D01*
X125801445Y-51342765D01*
X125840485Y-51387819D01*
X125888139Y-51481347D01*
X125950279Y-51566876D01*
X126572804Y-50944351D01*
X126580667Y-50973694D01*
X126639910Y-51076306D01*
X126723694Y-51160090D01*
X126826306Y-51219333D01*
X126855646Y-51227194D01*
X126233121Y-51849719D01*
X126233122Y-51849720D01*
X126318640Y-51911852D01*
X126318649Y-51911858D01*
X126500968Y-52004755D01*
X126695582Y-52067990D01*
X126897683Y-52100000D01*
X127102317Y-52100000D01*
X127304417Y-52067990D01*
X127499031Y-52004755D01*
X127681349Y-51911859D01*
X127766876Y-51849719D01*
X127766877Y-51849718D01*
X127144353Y-51227194D01*
X127173694Y-51219333D01*
X127276306Y-51160090D01*
X127360090Y-51076306D01*
X127419333Y-50973694D01*
X127427194Y-50944353D01*
X128049718Y-51566877D01*
X128049719Y-51566876D01*
X128111859Y-51481349D01*
X128204755Y-51299031D01*
X128267990Y-51104417D01*
X128300000Y-50902317D01*
X128300000Y-50697682D01*
X128267990Y-50495582D01*
X128204755Y-50300968D01*
X128111858Y-50118649D01*
X128111852Y-50118640D01*
X128049720Y-50033122D01*
X128049719Y-50033121D01*
X127427194Y-50655646D01*
X127419333Y-50626306D01*
X127360090Y-50523694D01*
X127276306Y-50439910D01*
X127173694Y-50380667D01*
X127144352Y-50372804D01*
X127766876Y-49750279D01*
X127681347Y-49688139D01*
X127587819Y-49640485D01*
X127537023Y-49592511D01*
X127520228Y-49524690D01*
X127542765Y-49458555D01*
X127587820Y-49419515D01*
X127681347Y-49371861D01*
X127766876Y-49309719D01*
X127766877Y-49309718D01*
X127144353Y-48687194D01*
X127173694Y-48679333D01*
X127276306Y-48620090D01*
X127360090Y-48536306D01*
X127419333Y-48433694D01*
X127427194Y-48404353D01*
X128049718Y-49026877D01*
X128049719Y-49026876D01*
X128111859Y-48941349D01*
X128204755Y-48759031D01*
X128267990Y-48564417D01*
X128300000Y-48362317D01*
X128300000Y-48157682D01*
X128267990Y-47955582D01*
X128204755Y-47760968D01*
X128111858Y-47578649D01*
X128111858Y-47578648D01*
X128076309Y-47529719D01*
X128076308Y-47529716D01*
X128049720Y-47493122D01*
X128049719Y-47493121D01*
X127427194Y-48115646D01*
X127419333Y-48086306D01*
X127360090Y-47983694D01*
X127276306Y-47899910D01*
X127173694Y-47840667D01*
X127144352Y-47832804D01*
X127517172Y-47459983D01*
X132817000Y-47459983D01*
X132817000Y-49060001D01*
X132817001Y-49060018D01*
X132827500Y-49162796D01*
X132827501Y-49162799D01*
X132882685Y-49329331D01*
X132882687Y-49329336D01*
X132896873Y-49352335D01*
X132974788Y-49478656D01*
X133098844Y-49602712D01*
X133248166Y-49694814D01*
X133414703Y-49749999D01*
X133517491Y-49760500D01*
X135022508Y-49760499D01*
X135125297Y-49749999D01*
X135291834Y-49694814D01*
X135441156Y-49602712D01*
X135565212Y-49478656D01*
X135657314Y-49329334D01*
X135712499Y-49162797D01*
X135723000Y-49060009D01*
X135722999Y-47459992D01*
X135716429Y-47395680D01*
X135712499Y-47357203D01*
X135712498Y-47357200D01*
X135694415Y-47302629D01*
X135657314Y-47190666D01*
X135565212Y-47041344D01*
X135441156Y-46917288D01*
X135291834Y-46825186D01*
X135125297Y-46770001D01*
X135125295Y-46770000D01*
X135022510Y-46759500D01*
X133517498Y-46759500D01*
X133517481Y-46759501D01*
X133414703Y-46770000D01*
X133414700Y-46770001D01*
X133248168Y-46825185D01*
X133248163Y-46825187D01*
X133098842Y-46917289D01*
X132974789Y-47041342D01*
X132882687Y-47190663D01*
X132882686Y-47190666D01*
X132827501Y-47357203D01*
X132827501Y-47357204D01*
X132827500Y-47357204D01*
X132817000Y-47459983D01*
X127517172Y-47459983D01*
X127766876Y-47210279D01*
X127681347Y-47148139D01*
X127499031Y-47055244D01*
X127304417Y-46992009D01*
X127102317Y-46960000D01*
X126897683Y-46960000D01*
X126695582Y-46992009D01*
X126500968Y-47055244D01*
X126318648Y-47148141D01*
X126233122Y-47210278D01*
X126233122Y-47210279D01*
X126855647Y-47832804D01*
X126826306Y-47840667D01*
X126723694Y-47899910D01*
X126639910Y-47983694D01*
X126580667Y-48086306D01*
X126572804Y-48115647D01*
X125950279Y-47493122D01*
X125950278Y-47493122D01*
X125888141Y-47578649D01*
X125844229Y-47664832D01*
X125796254Y-47715628D01*
X125728433Y-47732423D01*
X125662298Y-47709885D01*
X125624386Y-47666991D01*
X125588844Y-47600498D01*
X125588832Y-47600478D01*
X125501295Y-47469469D01*
X125501291Y-47469463D01*
X125438485Y-47392935D01*
X125327064Y-47281514D01*
X125250536Y-47218708D01*
X125250530Y-47218704D01*
X125119521Y-47131167D01*
X125119501Y-47131155D01*
X125032198Y-47084490D01*
X124886612Y-47024185D01*
X124791866Y-46995445D01*
X124660000Y-46969214D01*
X124660000Y-47855854D01*
X124633694Y-47840667D01*
X124519244Y-47810000D01*
X124400756Y-47810000D01*
X124286306Y-47840667D01*
X124260000Y-47855854D01*
X124260000Y-46969215D01*
X124259999Y-46969214D01*
X124128133Y-46995445D01*
X124033387Y-47024185D01*
X123887801Y-47084490D01*
X123800498Y-47131155D01*
X123800478Y-47131167D01*
X123669469Y-47218704D01*
X123669463Y-47218708D01*
X123592935Y-47281514D01*
X123481514Y-47392935D01*
X123418708Y-47469463D01*
X123418704Y-47469469D01*
X123331167Y-47600478D01*
X123331150Y-47600506D01*
X123295899Y-47666455D01*
X123246936Y-47716299D01*
X123178798Y-47731758D01*
X123113119Y-47707925D01*
X123076057Y-47664294D01*
X123032286Y-47578388D01*
X122911971Y-47412786D01*
X122767213Y-47268028D01*
X122601613Y-47147715D01*
X122601612Y-47147714D01*
X122601610Y-47147713D01*
X122544653Y-47118691D01*
X122419223Y-47054781D01*
X122224534Y-46991522D01*
X122049995Y-46963878D01*
X122022352Y-46959500D01*
X121817648Y-46959500D01*
X121793329Y-46963351D01*
X121615465Y-46991522D01*
X121420776Y-47054781D01*
X121238386Y-47147715D01*
X121072786Y-47268028D01*
X120928028Y-47412786D01*
X120807715Y-47578386D01*
X120760485Y-47671080D01*
X120712510Y-47721876D01*
X120644689Y-47738671D01*
X120578554Y-47716134D01*
X120539515Y-47671080D01*
X120507335Y-47607924D01*
X120492287Y-47578390D01*
X120456924Y-47529716D01*
X120371971Y-47412786D01*
X120227213Y-47268028D01*
X120061613Y-47147715D01*
X120061612Y-47147714D01*
X120061610Y-47147713D01*
X120004653Y-47118691D01*
X119879223Y-47054781D01*
X119684534Y-46991522D01*
X119509995Y-46963878D01*
X119482352Y-46959500D01*
X119277648Y-46959500D01*
X119253329Y-46963351D01*
X119075465Y-46991522D01*
X118880776Y-47054781D01*
X118698386Y-47147715D01*
X118532786Y-47268028D01*
X118388028Y-47412786D01*
X118267715Y-47578386D01*
X118220485Y-47671080D01*
X118172510Y-47721876D01*
X118104689Y-47738671D01*
X118038554Y-47716134D01*
X117999515Y-47671080D01*
X117967335Y-47607924D01*
X117952287Y-47578390D01*
X117916924Y-47529716D01*
X117831971Y-47412786D01*
X117687213Y-47268028D01*
X117521613Y-47147715D01*
X117521612Y-47147714D01*
X117521610Y-47147713D01*
X117464653Y-47118691D01*
X117339223Y-47054781D01*
X117144534Y-46991522D01*
X116969995Y-46963878D01*
X116942352Y-46959500D01*
X116737648Y-46959500D01*
X116713329Y-46963351D01*
X116535465Y-46991522D01*
X116340776Y-47054781D01*
X116158381Y-47147717D01*
X116158379Y-47147718D01*
X116158079Y-47147937D01*
X116157945Y-47147984D01*
X116154234Y-47150259D01*
X116153755Y-47149478D01*
X116092268Y-47171405D01*
X116024217Y-47155567D01*
X115975532Y-47105453D01*
X115961669Y-47036972D01*
X115986834Y-46972122D01*
X116050249Y-46889479D01*
X116187923Y-46651021D01*
X116293295Y-46396632D01*
X116364560Y-46130666D01*
X116400500Y-45857674D01*
X116400500Y-45582326D01*
X116364560Y-45309334D01*
X116293295Y-45043368D01*
X116187923Y-44788979D01*
X116187921Y-44788976D01*
X116187919Y-44788971D01*
X116138732Y-44703778D01*
X116050249Y-44550521D01*
X115882628Y-44332072D01*
X115882623Y-44332066D01*
X115704238Y-44153681D01*
X115670753Y-44092358D01*
X115675737Y-44022666D01*
X115717609Y-43966733D01*
X115783073Y-43942316D01*
X115791919Y-43942000D01*
X149482000Y-43942000D01*
X149549039Y-43961685D01*
X149594794Y-44014489D01*
X149606000Y-44066000D01*
X149606000Y-97187886D01*
X149586315Y-97254925D01*
X149533511Y-97300680D01*
X149464353Y-97310624D01*
X149400797Y-97281599D01*
X149363023Y-97222821D01*
X149362225Y-97219979D01*
X149353626Y-97187886D01*
X149313295Y-97037368D01*
X149207923Y-96782979D01*
X149207921Y-96782976D01*
X149207919Y-96782971D01*
X149158732Y-96697778D01*
X149070249Y-96544521D01*
X148902628Y-96326072D01*
X148902623Y-96326066D01*
X148707933Y-96131376D01*
X148707926Y-96131370D01*
X148489483Y-95963754D01*
X148489482Y-95963753D01*
X148489479Y-95963751D01*
X148394407Y-95908861D01*
X148251028Y-95826080D01*
X148251017Y-95826075D01*
X147996630Y-95720704D01*
X147859400Y-95683934D01*
X147730666Y-95649440D01*
X147730660Y-95649439D01*
X147730655Y-95649438D01*
X147457684Y-95613501D01*
X147457679Y-95613500D01*
X147457674Y-95613500D01*
X147182326Y-95613500D01*
X147182320Y-95613500D01*
X147182315Y-95613501D01*
X146909344Y-95649438D01*
X146909337Y-95649439D01*
X146909334Y-95649440D01*
X146853125Y-95664500D01*
X146643369Y-95720704D01*
X146388982Y-95826075D01*
X146388971Y-95826080D01*
X146150516Y-95963754D01*
X145932073Y-96131370D01*
X145932066Y-96131376D01*
X145737376Y-96326066D01*
X145737370Y-96326073D01*
X145569754Y-96544516D01*
X145432080Y-96782971D01*
X145432075Y-96782982D01*
X145326704Y-97037369D01*
X145255441Y-97303331D01*
X145255438Y-97303344D01*
X145219501Y-97576315D01*
X145219500Y-97576332D01*
X145219500Y-97851667D01*
X145219501Y-97851684D01*
X145255438Y-98124655D01*
X145255439Y-98124660D01*
X145255440Y-98124666D01*
X145267751Y-98170610D01*
X145326704Y-98390630D01*
X145432075Y-98645017D01*
X145432080Y-98645028D01*
X145511809Y-98783121D01*
X145569751Y-98883479D01*
X145569753Y-98883482D01*
X145569754Y-98883483D01*
X145737370Y-99101926D01*
X145737376Y-99101933D01*
X145932066Y-99296623D01*
X145932072Y-99296628D01*
X146150521Y-99464249D01*
X146303778Y-99552732D01*
X146388971Y-99601919D01*
X146388976Y-99601921D01*
X146388979Y-99601923D01*
X146643368Y-99707295D01*
X146909334Y-99778560D01*
X147182326Y-99814500D01*
X147182333Y-99814500D01*
X147457667Y-99814500D01*
X147457674Y-99814500D01*
X147730666Y-99778560D01*
X147996632Y-99707295D01*
X148251021Y-99601923D01*
X148489479Y-99464249D01*
X148707928Y-99296628D01*
X148902628Y-99101928D01*
X149070249Y-98883479D01*
X149207923Y-98645021D01*
X149313295Y-98390632D01*
X149362225Y-98208018D01*
X149398590Y-98148359D01*
X149461437Y-98117830D01*
X149530812Y-98126125D01*
X149584690Y-98170610D01*
X149605965Y-98237162D01*
X149606000Y-98240113D01*
X149606000Y-100206000D01*
X149586315Y-100273039D01*
X149533511Y-100318794D01*
X149482000Y-100330000D01*
X96898000Y-100330000D01*
X96830961Y-100310315D01*
X96785206Y-100257511D01*
X96774000Y-100206000D01*
X96774000Y-97046113D01*
X96793685Y-96979074D01*
X96846489Y-96933319D01*
X96915647Y-96923375D01*
X96979203Y-96952400D01*
X97016977Y-97011178D01*
X97017764Y-97013982D01*
X97042664Y-97106910D01*
X97066704Y-97196630D01*
X97172075Y-97451017D01*
X97172080Y-97451028D01*
X97244416Y-97576315D01*
X97309751Y-97689479D01*
X97309753Y-97689482D01*
X97309754Y-97689483D01*
X97477370Y-97907926D01*
X97477376Y-97907933D01*
X97672066Y-98102623D01*
X97672073Y-98102629D01*
X97700795Y-98124668D01*
X97890521Y-98270249D01*
X98043778Y-98358732D01*
X98128971Y-98407919D01*
X98128976Y-98407921D01*
X98128979Y-98407923D01*
X98383368Y-98513295D01*
X98649334Y-98584560D01*
X98922326Y-98620500D01*
X98922333Y-98620500D01*
X99197667Y-98620500D01*
X99197674Y-98620500D01*
X99470666Y-98584560D01*
X99736632Y-98513295D01*
X99991021Y-98407923D01*
X100229479Y-98270249D01*
X100447928Y-98102628D01*
X100642628Y-97907928D01*
X100810249Y-97689479D01*
X100947923Y-97451021D01*
X101053295Y-97196632D01*
X101124560Y-96930666D01*
X101160500Y-96657674D01*
X101160500Y-96382326D01*
X101124560Y-96109334D01*
X101053295Y-95843368D01*
X100947923Y-95588979D01*
X100947921Y-95588976D01*
X100947919Y-95588971D01*
X100898732Y-95503778D01*
X100810249Y-95350521D01*
X100642628Y-95132072D01*
X100642623Y-95132066D01*
X100447933Y-94937376D01*
X100447926Y-94937370D01*
X100229483Y-94769754D01*
X100229482Y-94769753D01*
X100229479Y-94769751D01*
X100134407Y-94714861D01*
X99991028Y-94632080D01*
X99991017Y-94632075D01*
X99736630Y-94526704D01*
X99603649Y-94491072D01*
X99470666Y-94455440D01*
X99470660Y-94455439D01*
X99470655Y-94455438D01*
X99197684Y-94419501D01*
X99197679Y-94419500D01*
X99197674Y-94419500D01*
X98922326Y-94419500D01*
X98922320Y-94419500D01*
X98922315Y-94419501D01*
X98649344Y-94455438D01*
X98649337Y-94455439D01*
X98649334Y-94455440D01*
X98593125Y-94470500D01*
X98383369Y-94526704D01*
X98128982Y-94632075D01*
X98128971Y-94632080D01*
X97890516Y-94769754D01*
X97672073Y-94937370D01*
X97672066Y-94937376D01*
X97477376Y-95132066D01*
X97477370Y-95132073D01*
X97309754Y-95350516D01*
X97172080Y-95588971D01*
X97172075Y-95588982D01*
X97066704Y-95843369D01*
X97017775Y-96025979D01*
X96981410Y-96085640D01*
X96918563Y-96116169D01*
X96849188Y-96107874D01*
X96795310Y-96063389D01*
X96774035Y-95996837D01*
X96774000Y-95993886D01*
X96774000Y-87459983D01*
X108117000Y-87459983D01*
X108117000Y-89060001D01*
X108117001Y-89060018D01*
X108127500Y-89162796D01*
X108127501Y-89162799D01*
X108182685Y-89329331D01*
X108182686Y-89329334D01*
X108274788Y-89478656D01*
X108398844Y-89602712D01*
X108548166Y-89694814D01*
X108714703Y-89749999D01*
X108817491Y-89760500D01*
X110322508Y-89760499D01*
X110425297Y-89749999D01*
X110591834Y-89694814D01*
X110741156Y-89602712D01*
X110865212Y-89478656D01*
X110957314Y-89329334D01*
X111012499Y-89162797D01*
X111023000Y-89060009D01*
X111022999Y-87459992D01*
X111022998Y-87459983D01*
X132817000Y-87459983D01*
X132817000Y-89060001D01*
X132817001Y-89060018D01*
X132827500Y-89162796D01*
X132827501Y-89162799D01*
X132882685Y-89329331D01*
X132882686Y-89329334D01*
X132974788Y-89478656D01*
X133098844Y-89602712D01*
X133248166Y-89694814D01*
X133414703Y-89749999D01*
X133517491Y-89760500D01*
X135022508Y-89760499D01*
X135125297Y-89749999D01*
X135291834Y-89694814D01*
X135441156Y-89602712D01*
X135565212Y-89478656D01*
X135657314Y-89329334D01*
X135712499Y-89162797D01*
X135723000Y-89060009D01*
X135722999Y-87459992D01*
X135712499Y-87357203D01*
X135657314Y-87190666D01*
X135565212Y-87041344D01*
X135441156Y-86917288D01*
X135291834Y-86825186D01*
X135125297Y-86770001D01*
X135125295Y-86770000D01*
X135022510Y-86759500D01*
X133517498Y-86759500D01*
X133517481Y-86759501D01*
X133414703Y-86770000D01*
X133414700Y-86770001D01*
X133248168Y-86825185D01*
X133248163Y-86825187D01*
X133098842Y-86917289D01*
X132974789Y-87041342D01*
X132882687Y-87190663D01*
X132882686Y-87190666D01*
X132827501Y-87357203D01*
X132827501Y-87357204D01*
X132827500Y-87357204D01*
X132817000Y-87459983D01*
X111022998Y-87459983D01*
X111012499Y-87357203D01*
X110957314Y-87190666D01*
X110865212Y-87041344D01*
X110741156Y-86917288D01*
X110591834Y-86825186D01*
X110425297Y-86770001D01*
X110425295Y-86770000D01*
X110322510Y-86759500D01*
X108817498Y-86759500D01*
X108817481Y-86759501D01*
X108714703Y-86770000D01*
X108714700Y-86770001D01*
X108548168Y-86825185D01*
X108548163Y-86825187D01*
X108398842Y-86917289D01*
X108274789Y-87041342D01*
X108182687Y-87190663D01*
X108182686Y-87190666D01*
X108127501Y-87357203D01*
X108127501Y-87357204D01*
X108127500Y-87357204D01*
X108117000Y-87459983D01*
X96774000Y-87459983D01*
X96774000Y-83637973D01*
X105369500Y-83637973D01*
X105369500Y-83688276D01*
X105369500Y-83882027D01*
X105407679Y-84123076D01*
X105454661Y-84267672D01*
X105483097Y-84355187D01*
X105593896Y-84572642D01*
X105737339Y-84770076D01*
X105737343Y-84770081D01*
X105909918Y-84942656D01*
X105909923Y-84942660D01*
X105954502Y-84975048D01*
X106107361Y-85086106D01*
X106324815Y-85196904D01*
X106556924Y-85272321D01*
X106797973Y-85310500D01*
X106797974Y-85310500D01*
X107042026Y-85310500D01*
X107042027Y-85310500D01*
X107283076Y-85272321D01*
X107515185Y-85196904D01*
X107732639Y-85086106D01*
X107930083Y-84942655D01*
X108102655Y-84770083D01*
X108246106Y-84572639D01*
X108356904Y-84355185D01*
X108432321Y-84123076D01*
X108470500Y-83882027D01*
X108470500Y-83637973D01*
X135369500Y-83637973D01*
X135369500Y-83688276D01*
X135369500Y-83882027D01*
X135407679Y-84123076D01*
X135454661Y-84267672D01*
X135483097Y-84355187D01*
X135593896Y-84572642D01*
X135737339Y-84770076D01*
X135737343Y-84770081D01*
X135909918Y-84942656D01*
X135909923Y-84942660D01*
X135954502Y-84975048D01*
X136107361Y-85086106D01*
X136324815Y-85196904D01*
X136556924Y-85272321D01*
X136797973Y-85310500D01*
X136797974Y-85310500D01*
X137042026Y-85310500D01*
X137042027Y-85310500D01*
X137283076Y-85272321D01*
X137515185Y-85196904D01*
X137732639Y-85086106D01*
X137930083Y-84942655D01*
X138102655Y-84770083D01*
X138246106Y-84572639D01*
X138356904Y-84355185D01*
X138432321Y-84123076D01*
X138470500Y-83882027D01*
X138470500Y-83637973D01*
X138432321Y-83396924D01*
X138356904Y-83164815D01*
X138246106Y-82947361D01*
X138227779Y-82922136D01*
X138102660Y-82749923D01*
X138102656Y-82749918D01*
X137930081Y-82577343D01*
X137930076Y-82577339D01*
X137732642Y-82433896D01*
X137732641Y-82433895D01*
X137732639Y-82433894D01*
X137515185Y-82323096D01*
X137283076Y-82247679D01*
X137283074Y-82247678D01*
X137283072Y-82247678D01*
X137114769Y-82221021D01*
X137042027Y-82209500D01*
X136797973Y-82209500D01*
X136742093Y-82218350D01*
X136556927Y-82247678D01*
X136324812Y-82323097D01*
X136107357Y-82433896D01*
X135909923Y-82577339D01*
X135909918Y-82577343D01*
X135737343Y-82749918D01*
X135737339Y-82749923D01*
X135593896Y-82947357D01*
X135483097Y-83164812D01*
X135407678Y-83396927D01*
X135383479Y-83549715D01*
X135369500Y-83637973D01*
X108470500Y-83637973D01*
X108432321Y-83396924D01*
X108356904Y-83164815D01*
X108246106Y-82947361D01*
X108227779Y-82922136D01*
X108102660Y-82749923D01*
X108102656Y-82749918D01*
X107930081Y-82577343D01*
X107930076Y-82577339D01*
X107732642Y-82433896D01*
X107732641Y-82433895D01*
X107732639Y-82433894D01*
X107515185Y-82323096D01*
X107283076Y-82247679D01*
X107283074Y-82247678D01*
X107283072Y-82247678D01*
X107114769Y-82221021D01*
X107042027Y-82209500D01*
X106797973Y-82209500D01*
X106742093Y-82218350D01*
X106556927Y-82247678D01*
X106324812Y-82323097D01*
X106107357Y-82433896D01*
X105909923Y-82577339D01*
X105909918Y-82577343D01*
X105737343Y-82749918D01*
X105737339Y-82749923D01*
X105593896Y-82947357D01*
X105483097Y-83164812D01*
X105407678Y-83396927D01*
X105383479Y-83549715D01*
X105369500Y-83637973D01*
X96774000Y-83637973D01*
X96774000Y-47362135D01*
X97709500Y-47362135D01*
X97709500Y-49157870D01*
X97709501Y-49157876D01*
X97715908Y-49217483D01*
X97766202Y-49352328D01*
X97766206Y-49352335D01*
X97852452Y-49467544D01*
X97852455Y-49467547D01*
X97967664Y-49553793D01*
X97967671Y-49553797D01*
X98099082Y-49602810D01*
X98155016Y-49644681D01*
X98179433Y-49710145D01*
X98164582Y-49778418D01*
X98143431Y-49806673D01*
X98029889Y-49920215D01*
X97904951Y-50092179D01*
X97808444Y-50281585D01*
X97742753Y-50483760D01*
X97709500Y-50693713D01*
X97709500Y-50906286D01*
X97737463Y-51082842D01*
X97742754Y-51116243D01*
X97786214Y-51250000D01*
X97808444Y-51318414D01*
X97904951Y-51507820D01*
X98029890Y-51679786D01*
X98180213Y-51830109D01*
X98352182Y-51955050D01*
X98360946Y-51959516D01*
X98411742Y-52007491D01*
X98428536Y-52075312D01*
X98405998Y-52141447D01*
X98360946Y-52180484D01*
X98352182Y-52184949D01*
X98180213Y-52309890D01*
X98029890Y-52460213D01*
X97904951Y-52632179D01*
X97808444Y-52821585D01*
X97742753Y-53023760D01*
X97731547Y-53094514D01*
X97709500Y-53233713D01*
X97709500Y-53446287D01*
X97742754Y-53656243D01*
X97779742Y-53770081D01*
X97808444Y-53858414D01*
X97904951Y-54047820D01*
X98029890Y-54219786D01*
X98180213Y-54370109D01*
X98352182Y-54495050D01*
X98360946Y-54499516D01*
X98411742Y-54547491D01*
X98428536Y-54615312D01*
X98405998Y-54681447D01*
X98360946Y-54720484D01*
X98352182Y-54724949D01*
X98180213Y-54849890D01*
X98029890Y-55000213D01*
X97904951Y-55172179D01*
X97808444Y-55361585D01*
X97742753Y-55563760D01*
X97709500Y-55773713D01*
X97709500Y-55986286D01*
X97742753Y-56196239D01*
X97808444Y-56398414D01*
X97904951Y-56587820D01*
X98029890Y-56759786D01*
X98180213Y-56910109D01*
X98352182Y-57035050D01*
X98360946Y-57039516D01*
X98411742Y-57087491D01*
X98428536Y-57155312D01*
X98405998Y-57221447D01*
X98360946Y-57260484D01*
X98352182Y-57264949D01*
X98180213Y-57389890D01*
X98029890Y-57540213D01*
X97904951Y-57712179D01*
X97808444Y-57901585D01*
X97742753Y-58103760D01*
X97709500Y-58313713D01*
X97709500Y-58526286D01*
X97742753Y-58736239D01*
X97808444Y-58938414D01*
X97904951Y-59127820D01*
X98029890Y-59299786D01*
X98180213Y-59450109D01*
X98352182Y-59575050D01*
X98360946Y-59579516D01*
X98411742Y-59627491D01*
X98428536Y-59695312D01*
X98405998Y-59761447D01*
X98360946Y-59800484D01*
X98352182Y-59804949D01*
X98180213Y-59929890D01*
X98029890Y-60080213D01*
X97904951Y-60252179D01*
X97808444Y-60441585D01*
X97742753Y-60643760D01*
X97709500Y-60853713D01*
X97709500Y-61066286D01*
X97742753Y-61276239D01*
X97808444Y-61478414D01*
X97904951Y-61667820D01*
X98029890Y-61839786D01*
X98180213Y-61990109D01*
X98352182Y-62115050D01*
X98360946Y-62119516D01*
X98411742Y-62167491D01*
X98428536Y-62235312D01*
X98405998Y-62301447D01*
X98360946Y-62340484D01*
X98352182Y-62344949D01*
X98180213Y-62469890D01*
X98029890Y-62620213D01*
X97904951Y-62792179D01*
X97808444Y-62981585D01*
X97742753Y-63183760D01*
X97709500Y-63393713D01*
X97709500Y-63606286D01*
X97742753Y-63816239D01*
X97808444Y-64018414D01*
X97904951Y-64207820D01*
X98029890Y-64379786D01*
X98180213Y-64530109D01*
X98352182Y-64655050D01*
X98360946Y-64659516D01*
X98411742Y-64707491D01*
X98428536Y-64775312D01*
X98405998Y-64841447D01*
X98360946Y-64880484D01*
X98352182Y-64884949D01*
X98180213Y-65009890D01*
X98029890Y-65160213D01*
X97904951Y-65332179D01*
X97808444Y-65521585D01*
X97742753Y-65723760D01*
X97709500Y-65933713D01*
X97709500Y-66146286D01*
X97742753Y-66356239D01*
X97808444Y-66558414D01*
X97904951Y-66747820D01*
X98029890Y-66919786D01*
X98180213Y-67070109D01*
X98352179Y-67195048D01*
X98352181Y-67195049D01*
X98352184Y-67195051D01*
X98541588Y-67291557D01*
X98743757Y-67357246D01*
X98953713Y-67390500D01*
X98953714Y-67390500D01*
X99166286Y-67390500D01*
X99166287Y-67390500D01*
X99376243Y-67357246D01*
X99578412Y-67291557D01*
X99767816Y-67195051D01*
X99854138Y-67132335D01*
X99939786Y-67070109D01*
X99939788Y-67070106D01*
X99939792Y-67070104D01*
X100090104Y-66919792D01*
X100090106Y-66919788D01*
X100090109Y-66919786D01*
X100215048Y-66747820D01*
X100215047Y-66747820D01*
X100215051Y-66747816D01*
X100311557Y-66558412D01*
X100377246Y-66356243D01*
X100410500Y-66146287D01*
X100410500Y-65933713D01*
X100377246Y-65723757D01*
X100311557Y-65521588D01*
X100215051Y-65332184D01*
X100215049Y-65332181D01*
X100215048Y-65332179D01*
X100090109Y-65160213D01*
X99939786Y-65009890D01*
X99767820Y-64884951D01*
X99767115Y-64884591D01*
X99759054Y-64880485D01*
X99708259Y-64832512D01*
X99691463Y-64764692D01*
X99713999Y-64698556D01*
X99759054Y-64659515D01*
X99767816Y-64655051D01*
X99789789Y-64639086D01*
X99939786Y-64530109D01*
X99939788Y-64530106D01*
X99939792Y-64530104D01*
X100090104Y-64379792D01*
X100090106Y-64379788D01*
X100090109Y-64379786D01*
X100215048Y-64207820D01*
X100215047Y-64207820D01*
X100215051Y-64207816D01*
X100311557Y-64018412D01*
X100377246Y-63816243D01*
X100410500Y-63606287D01*
X100410500Y-63393713D01*
X100377246Y-63183757D01*
X100311557Y-62981588D01*
X100215051Y-62792184D01*
X100215049Y-62792181D01*
X100215048Y-62792179D01*
X100090109Y-62620213D01*
X99939786Y-62469890D01*
X99767820Y-62344951D01*
X99767115Y-62344591D01*
X99759054Y-62340485D01*
X99708259Y-62292512D01*
X99691463Y-62224692D01*
X99713999Y-62158556D01*
X99759054Y-62119515D01*
X99767816Y-62115051D01*
X99789789Y-62099086D01*
X99939786Y-61990109D01*
X99939788Y-61990106D01*
X99939792Y-61990104D01*
X100090104Y-61839792D01*
X100090106Y-61839788D01*
X100090109Y-61839786D01*
X100215048Y-61667820D01*
X100215047Y-61667820D01*
X100215051Y-61667816D01*
X100311557Y-61478412D01*
X100377246Y-61276243D01*
X100410500Y-61066287D01*
X100410500Y-60853713D01*
X100377246Y-60643757D01*
X100311557Y-60441588D01*
X100215051Y-60252184D01*
X100215049Y-60252181D01*
X100215048Y-60252179D01*
X100090109Y-60080213D01*
X99939786Y-59929890D01*
X99767820Y-59804951D01*
X99767115Y-59804591D01*
X99759054Y-59800485D01*
X99708259Y-59752512D01*
X99691463Y-59684692D01*
X99713999Y-59618556D01*
X99759054Y-59579515D01*
X99767816Y-59575051D01*
X99789789Y-59559086D01*
X99939786Y-59450109D01*
X99939788Y-59450106D01*
X99939792Y-59450104D01*
X100090104Y-59299792D01*
X100090106Y-59299788D01*
X100090109Y-59299786D01*
X100215048Y-59127820D01*
X100215047Y-59127820D01*
X100215051Y-59127816D01*
X100311557Y-58938412D01*
X100377246Y-58736243D01*
X100410500Y-58526287D01*
X100410500Y-58313713D01*
X100377246Y-58103757D01*
X100311557Y-57901588D01*
X100215051Y-57712184D01*
X100215049Y-57712181D01*
X100215048Y-57712179D01*
X100090109Y-57540213D01*
X99939786Y-57389890D01*
X99767820Y-57264951D01*
X99767115Y-57264591D01*
X99759054Y-57260485D01*
X99708259Y-57212512D01*
X99691463Y-57144692D01*
X99713999Y-57078556D01*
X99759054Y-57039515D01*
X99767816Y-57035051D01*
X99789789Y-57019086D01*
X99939786Y-56910109D01*
X99939788Y-56910106D01*
X99939792Y-56910104D01*
X100090104Y-56759792D01*
X100090106Y-56759788D01*
X100090109Y-56759786D01*
X100215048Y-56587820D01*
X100215047Y-56587820D01*
X100215051Y-56587816D01*
X100311557Y-56398412D01*
X100377246Y-56196243D01*
X100410500Y-55986287D01*
X100410500Y-55773713D01*
X100377246Y-55563757D01*
X100311557Y-55361588D01*
X100215051Y-55172184D01*
X100215049Y-55172181D01*
X100215048Y-55172179D01*
X100090109Y-55000213D01*
X99939786Y-54849890D01*
X99767820Y-54724951D01*
X99767115Y-54724591D01*
X99759054Y-54720485D01*
X99708259Y-54672512D01*
X99691463Y-54604692D01*
X99713999Y-54538556D01*
X99759054Y-54499515D01*
X99767816Y-54495051D01*
X99789789Y-54479086D01*
X99939786Y-54370109D01*
X99939788Y-54370106D01*
X99939792Y-54370104D01*
X100090104Y-54219792D01*
X100090106Y-54219788D01*
X100090109Y-54219786D01*
X100215048Y-54047820D01*
X100215047Y-54047820D01*
X100215051Y-54047816D01*
X100311557Y-53858412D01*
X100377246Y-53656243D01*
X100410500Y-53446287D01*
X100410500Y-53233713D01*
X100377246Y-53023757D01*
X100311557Y-52821588D01*
X100218001Y-52637973D01*
X105369500Y-52637973D01*
X105369500Y-52882026D01*
X105391948Y-53023760D01*
X105407679Y-53123076D01*
X105480975Y-53348658D01*
X105483097Y-53355187D01*
X105593896Y-53572642D01*
X105737339Y-53770076D01*
X105737343Y-53770081D01*
X105909918Y-53942656D01*
X105909923Y-53942660D01*
X106054659Y-54047816D01*
X106107361Y-54086106D01*
X106324815Y-54196904D01*
X106556924Y-54272321D01*
X106797973Y-54310500D01*
X106797974Y-54310500D01*
X107042026Y-54310500D01*
X107042027Y-54310500D01*
X107283076Y-54272321D01*
X107515185Y-54196904D01*
X107732639Y-54086106D01*
X107930083Y-53942655D01*
X108102655Y-53770083D01*
X108246106Y-53572639D01*
X108356904Y-53355185D01*
X108432321Y-53123076D01*
X108470500Y-52882027D01*
X108470500Y-52637973D01*
X108432321Y-52396924D01*
X108356904Y-52164815D01*
X108246106Y-51947361D01*
X108175165Y-51849719D01*
X108102660Y-51749923D01*
X108102656Y-51749918D01*
X107930081Y-51577343D01*
X107930076Y-51577339D01*
X107732642Y-51433896D01*
X107732641Y-51433895D01*
X107732639Y-51433894D01*
X107515185Y-51323096D01*
X107283076Y-51247679D01*
X107283074Y-51247678D01*
X107283072Y-51247678D01*
X107104109Y-51219333D01*
X107042027Y-51209500D01*
X106797973Y-51209500D01*
X106742093Y-51218350D01*
X106556927Y-51247678D01*
X106324812Y-51323097D01*
X106107357Y-51433896D01*
X105909923Y-51577339D01*
X105909918Y-51577343D01*
X105737343Y-51749918D01*
X105737339Y-51749923D01*
X105593896Y-51947357D01*
X105483097Y-52164812D01*
X105407678Y-52396927D01*
X105369500Y-52637973D01*
X100218001Y-52637973D01*
X100215051Y-52632184D01*
X100207023Y-52621134D01*
X100090109Y-52460213D01*
X99939786Y-52309890D01*
X99767820Y-52184951D01*
X99767115Y-52184591D01*
X99759054Y-52180485D01*
X99708259Y-52132512D01*
X99691463Y-52064692D01*
X99713999Y-51998556D01*
X99759054Y-51959515D01*
X99767816Y-51955051D01*
X99827265Y-51911859D01*
X99939786Y-51830109D01*
X99939788Y-51830106D01*
X99939792Y-51830104D01*
X100090104Y-51679792D01*
X100090106Y-51679788D01*
X100090109Y-51679786D01*
X100215048Y-51507820D01*
X100215047Y-51507820D01*
X100215051Y-51507816D01*
X100311557Y-51318412D01*
X100377246Y-51116243D01*
X100410500Y-50906287D01*
X100410500Y-50693713D01*
X100377246Y-50483757D01*
X100311557Y-50281588D01*
X100215051Y-50092184D01*
X100215049Y-50092181D01*
X100215048Y-50092179D01*
X100090109Y-49920213D01*
X99976569Y-49806673D01*
X99943084Y-49745350D01*
X99948068Y-49675658D01*
X99989940Y-49619725D01*
X100020915Y-49602810D01*
X100152331Y-49553796D01*
X100267546Y-49467546D01*
X100353796Y-49352331D01*
X100404091Y-49217483D01*
X100410500Y-49157873D01*
X100410499Y-47459983D01*
X108117000Y-47459983D01*
X108117000Y-49060001D01*
X108117001Y-49060018D01*
X108127500Y-49162796D01*
X108127501Y-49162799D01*
X108182685Y-49329331D01*
X108182687Y-49329336D01*
X108196873Y-49352335D01*
X108274788Y-49478656D01*
X108398844Y-49602712D01*
X108548166Y-49694814D01*
X108714703Y-49749999D01*
X108817491Y-49760500D01*
X110322508Y-49760499D01*
X110425297Y-49749999D01*
X110591834Y-49694814D01*
X110741156Y-49602712D01*
X110865212Y-49478656D01*
X110957314Y-49329334D01*
X111012499Y-49162797D01*
X111023000Y-49060009D01*
X111022999Y-47459992D01*
X111016429Y-47395680D01*
X111012499Y-47357203D01*
X111012498Y-47357200D01*
X110994415Y-47302629D01*
X110957314Y-47190666D01*
X110865212Y-47041344D01*
X110741156Y-46917288D01*
X110591834Y-46825186D01*
X110425297Y-46770001D01*
X110425295Y-46770000D01*
X110322510Y-46759500D01*
X108817498Y-46759500D01*
X108817481Y-46759501D01*
X108714703Y-46770000D01*
X108714700Y-46770001D01*
X108548168Y-46825185D01*
X108548163Y-46825187D01*
X108398842Y-46917289D01*
X108274789Y-47041342D01*
X108182687Y-47190663D01*
X108182686Y-47190666D01*
X108127501Y-47357203D01*
X108127501Y-47357204D01*
X108127500Y-47357204D01*
X108117000Y-47459983D01*
X100410499Y-47459983D01*
X100410499Y-47362128D01*
X100404103Y-47302628D01*
X100404091Y-47302516D01*
X100353797Y-47167671D01*
X100353793Y-47167664D01*
X100267547Y-47052455D01*
X100267544Y-47052452D01*
X100152335Y-46966206D01*
X100152328Y-46966202D01*
X100017482Y-46915908D01*
X100017483Y-46915908D01*
X99957883Y-46909501D01*
X99957881Y-46909500D01*
X99957873Y-46909500D01*
X99957864Y-46909500D01*
X98162129Y-46909500D01*
X98162123Y-46909501D01*
X98102516Y-46915908D01*
X97967671Y-46966202D01*
X97967664Y-46966206D01*
X97852455Y-47052452D01*
X97852452Y-47052455D01*
X97766206Y-47167664D01*
X97766202Y-47167671D01*
X97715908Y-47302517D01*
X97710029Y-47357203D01*
X97709501Y-47362123D01*
X97709500Y-47362135D01*
X96774000Y-47362135D01*
X96774000Y-44066000D01*
X96793685Y-43998961D01*
X96846489Y-43953206D01*
X96898000Y-43942000D01*
X112808081Y-43942000D01*
X112875120Y-43961685D01*
G37*
G04 #@! TD.AperFunction*
G04 #@! TA.AperFunction,Conductor*
G36*
X123257986Y-48810650D02*
G01*
X123295900Y-48853545D01*
X123331155Y-48919500D01*
X123331167Y-48919521D01*
X123418704Y-49050530D01*
X123418708Y-49050536D01*
X123481514Y-49127064D01*
X123592935Y-49238485D01*
X123669463Y-49301291D01*
X123669469Y-49301295D01*
X123800478Y-49388832D01*
X123800498Y-49388844D01*
X123866991Y-49424386D01*
X123916835Y-49473349D01*
X123932295Y-49541487D01*
X123908463Y-49607166D01*
X123864832Y-49644229D01*
X123778649Y-49688141D01*
X123693122Y-49750278D01*
X123693122Y-49750279D01*
X124315647Y-50372804D01*
X124286306Y-50380667D01*
X124183694Y-50439910D01*
X124099910Y-50523694D01*
X124040667Y-50626306D01*
X124032804Y-50655647D01*
X123410279Y-50033122D01*
X123410278Y-50033122D01*
X123348141Y-50118649D01*
X123300765Y-50211630D01*
X123252790Y-50262426D01*
X123184969Y-50279221D01*
X123118834Y-50256683D01*
X123079795Y-50211630D01*
X123032284Y-50118385D01*
X122911971Y-49952786D01*
X122856819Y-49897634D01*
X122823334Y-49836311D01*
X122820500Y-49809953D01*
X122820500Y-49250047D01*
X122840185Y-49183008D01*
X122856819Y-49162366D01*
X122861321Y-49157864D01*
X122911966Y-49107219D01*
X122911968Y-49107215D01*
X122911971Y-49107213D01*
X123032286Y-48941611D01*
X123032287Y-48941610D01*
X123076058Y-48855703D01*
X123124030Y-48804909D01*
X123191851Y-48788113D01*
X123257986Y-48810650D01*
G37*
G04 #@! TD.AperFunction*
G04 #@! TA.AperFunction,Conductor*
G36*
X126580667Y-48433694D02*
G01*
X126639910Y-48536306D01*
X126723694Y-48620090D01*
X126826306Y-48679333D01*
X126855646Y-48687194D01*
X126233121Y-49309719D01*
X126233122Y-49309720D01*
X126318640Y-49371852D01*
X126318649Y-49371858D01*
X126412180Y-49419515D01*
X126462976Y-49467490D01*
X126479771Y-49535311D01*
X126457233Y-49601446D01*
X126412180Y-49640485D01*
X126318649Y-49688141D01*
X126233122Y-49750278D01*
X126233122Y-49750279D01*
X126855647Y-50372804D01*
X126826306Y-50380667D01*
X126723694Y-50439910D01*
X126639910Y-50523694D01*
X126580667Y-50626306D01*
X126572804Y-50655647D01*
X125950279Y-50033122D01*
X125950278Y-50033122D01*
X125888141Y-50118649D01*
X125840485Y-50212180D01*
X125792510Y-50262976D01*
X125724689Y-50279771D01*
X125658554Y-50257233D01*
X125619515Y-50212180D01*
X125571858Y-50118649D01*
X125571852Y-50118640D01*
X125509720Y-50033122D01*
X125509719Y-50033121D01*
X124887194Y-50655646D01*
X124879333Y-50626306D01*
X124820090Y-50523694D01*
X124736306Y-50439910D01*
X124633694Y-50380667D01*
X124604352Y-50372804D01*
X125226876Y-49750279D01*
X125141347Y-49688139D01*
X125055167Y-49644229D01*
X125004371Y-49596255D01*
X124987576Y-49528434D01*
X125010113Y-49462299D01*
X125053009Y-49424386D01*
X125119493Y-49388849D01*
X125119521Y-49388832D01*
X125250530Y-49301295D01*
X125250536Y-49301291D01*
X125327064Y-49238485D01*
X125390771Y-49174779D01*
X125438485Y-49127064D01*
X125501291Y-49050536D01*
X125501295Y-49050530D01*
X125588832Y-48919521D01*
X125588849Y-48919493D01*
X125624386Y-48853009D01*
X125673348Y-48803165D01*
X125741486Y-48787704D01*
X125807166Y-48811536D01*
X125844229Y-48855167D01*
X125888139Y-48941347D01*
X125950279Y-49026876D01*
X126572804Y-48404351D01*
X126580667Y-48433694D01*
G37*
G04 #@! TD.AperFunction*
G04 #@! TD*
M02*
